<svg id="Layer_1" enable-background="new 0 0 68 68" height="512" viewBox="0 0 68 68" width="512" xmlns="http://www.w3.org/2000/svg"><g><g><g><g><g><path d="m34.1108551 31.414072-4.12743-1.0914211c-.2106628-.6897354-.4980145-1.3696518-.8332958-2.0112247l2.1547832-3.6778145c.1339722-.2394199.1054478-.5358887-.0956268-.7369652l-2.8157616-2.8159943c-.2010765-.2010765-.5075989-.2487736-.7470207-.1052151l-3.6869335 2.1547832-.3448677-.1725502c-.3254623-.1627312-.6607437-.3062897-1.0053787-.4306774-.2202473-.0865078-.4311428-.1533775-.651392-.2394199l-1.0820675-4.1183109c-.0766888-.2679443-.3161087-.4498482-.593874-.4498482h-3.9934578c-.2777653 0-.5267715.1819038-.593874.4498482l-.0191727.057518-.1148005.4503155-.1723166.6892681-.7757788 2.9212093c-.6990881.2296009-1.3696527.5073662-2.0112247.8426476l-3.6773472-2.1547832c-.2394199-.1435585-.5459433-.0958614-.7470188.1052151l-1.8101492 1.8101482-.641572.641571-.3640404.364275c-.2010756.2010765-.2296004.4975452-.0956278.7369652l1.9441214 3.3425331.0095863.0191727.1914892.3161087c-.0191722.0383453-.0383444.0668697-.0479307.1052151-.315876.6130466-.5744686 1.2546196-.7755442 1.9153633l-4.1276631 1.0820674c-.2681789.0673371-.4596684.306757-.4596684.5845223v3.9836369c0 .296936.1914895.5270042.4596684.5938759l4.1276636 1.0918884c.2104278.6892662.488193 1.3691826.8330612 2.0014038l-2.1547832 3.6871681c-.1339726.239418-.1054478.5457077.0956278.7374306l2.8157616 2.8248825c.2010756.1917229.5075989.239418.7470188.0958595l3.6773472-2.1547813c.1150341.0575142.2298346.1243858.3448687.1725502.3350487.1627312.67033.3062897 1.0149651.4404945.2108955.0766907.4311438.1529121.651391.2202492l1.0820684 4.1370163c.0671024.2684135.3161087.4503136.593874.4503136h3.9934578c.2777653 0 .5171852-.1819.593874-.4503136l1.0820675-4.1370163c.6990891-.2202492 1.3696537-.4980125 2.0016384-.8332939l.0095863.009819.5171852.3062897.315876.1819038 1.9824677 1.1494026.8618183.5073662c.0671043.0383453.1437931.067337.2202492.0860405.1725502.0196419.354454-.0383415.4886608-.1529083.0191708-.0098228.0285244-.0191727.0381107-.0289917l2.4517193-2.4610748.3640423-.3638077c.2010746-.1917229.229599-.4980125.0956268-.7374306l-1.9537067-3.3327141-.2010765-.354454c.0191727-.0383453.0383453-.0668716.0479317-.1052132.3161087-.6036949.5840549-1.2452698.7853642-1.8961906l4.12743-1.0918884c.268177-.0668716.4596672-.2969398.4596672-.5938759v-3.9836369c-.0000005-.2777653-.1914907-.5171852-.4596677-.5845223z" fill="#70c1f9"/></g></g></g><g><circle cx="18.28" cy="33.994" fill="#4f5d99" r="7.512"/></g><g><circle cx="18.28" cy="33.994" fill="#fff" r="5.893"/></g></g><g><g><g><path d="m55.7350197 10.6514511v46.6970978c0 2.4512367-1.9822083 4.4245872-4.4245872 4.4245872h-28.600586c-2.442379 0-4.4245853-1.9733505-4.4245853-4.4245872v-46.6970978c0-2.4423809 1.9822063-4.4245863 4.4245853-4.4245863h28.6005859c2.442379 0 4.4245873 1.9822054 4.4245873 4.4245863z" fill="#4f5d99"/></g></g><g><path d="m52.6384735 11.5325508v44.9317436c0 .7464943-.3731422 1.4061165-.9458847 1.8053207-.0173759.0086861-.0347519.026062-.0521278.0347481-.3470764.2428322-.7636566.3731422-1.2149887.3731422h-26.8357239c-1.2152023 0-2.2134266-.9982224-2.2134266-2.2132111v-44.9317435c0-1.2149897.9982243-2.2130022 2.2134266-2.2130022h10.7098808c.3818283 0 .6943703.3123293.6943703.6941586 0 .7899342.4252663 1.5535936 1.1022606 1.9006739.0345421.017375.0608139.03475.0953522.043438.1216278.060813.243042.1042509.3731422.1303129.1476898.0347509.295166.0521259.4428558.0521259.1474762 0 .2949524-.017375.4424324-.0521259.9460983-.1911268 1.5709686-1.1109505 1.5709686-2.0744247 0-.1387892.043438-.2691031.121624-.3818293v-.008688c.0173759-.026062.0347519-.043438.0606003-.0695.1216278-.1387901.312542-.2341413.512146-.2341413h10.7100906c1.2149888-.0000001 2.2130013.9980124 2.2130013 2.2130021z" fill="#e9e9ff"/></g><g><g><g><path d="m38.059639 45.9525871v.8318481c0 .2135506-.1680832.3816376-.3816376.3816376h-11.6399002c-.2060986 0-.3816357-.168087-.3816357-.3816376v-.8318481c0-.2064705.1755371-.3816338.3816357-.3816338h11.6399002c.2135544.0000001.3816376.1751633.3816376.3816338z" fill="#cfcfff"/></g><g><path d="m48.3638153 45.9525871v.8318481c0 .2135506-.1680832.3816376-.3816376.3816376h-7.4419022c-.2061005 0-.3816376-.168087-.3816376-.3816376v-.8318481c0-.2064705.1755371-.3816338.3816376-.3816338h7.4419022c.2135544.0000001.3816376.1751633.3816376.3816338z" fill="#cfcfff"/></g></g><g><g><g><path d="m43.1590233 51.6225548v3.4371109c0 .5257607-.4262123.9519768-.9519768.9519768h-10.393816c-.5257607 0-.9519749-.4262161-.9519749-.9519768v-3.4371109c0-.5257607.4262142-.9519768.9519749-.9519768h10.393816c.5257645 0 .9519768.4262161.9519768.9519768z" fill="#7bd681"/></g><g><path d="m40.782711 52.988472v.7095032c0 .1903687-.1557198.346302-.3460884.346302h-6.8543739c-.1903687 0-.3460884-.1559334-.3460884-.346302v-.7095032c0-.1903687.1557198-.3462982.3460884-.3462982h6.8543739c.1903687 0 .3460884.1559295.3460884.3462982z" fill="#28892d"/></g></g></g></g><g><g><path d="m31.4201832 15.6334362v6.4282627c0 .3271904-.2685966.595787-.595787.595787h-6.4364586c-.3273945 0-.5875912-.2685966-.5875912-.595787v-6.4282627c0-.3271914.2601967-.5957861.5875912-.5957861h6.4364586c.3271903 0 .595787.2685948.595787.5957861z" fill="#ed524e"/></g><g><path d="m40.817318 15.6334362v6.4282627c0 .3271904-.2685966.595787-.595787.595787h-6.4364586c-.3273964 0-.5875931-.2685966-.5875931-.595787v-6.4282627c0-.3271914.2601967-.5957861.5875931-.5957861h6.4364586c.3271903 0 .595787.2685948.595787.5957861z" fill="#fdc72e"/></g><g><path d="m50.2144508 15.6334362v6.4282627c0 .3271904-.2685966.595787-.595787.595787h-6.4364586c-.3273964 0-.5875893-.2685966-.5875893-.595787v-6.4282627c0-.3271914.2601929-.5957861.5875893-.5957861h6.4364586c.3271904 0 .595787.2685948.595787.5957861z" fill="#70c1f9"/></g></g><g><g><path d="m40.817318 24.9693317v6.4282646c0 .3271904-.2685966.5957851-.595787.5957851h-6.4364586c-.3273964 0-.5875931-.2685947-.5875931-.5957851v-6.4282646c0-.3271904.2601967-.5957851.5875931-.5957851h6.4364586c.3271903 0 .595787.2685947.595787.5957851z" fill="#7bd681"/></g><g><path d="m50.2144508 24.9693317v6.4282646c0 .3271904-.2685966.5957851-.595787.5957851h-6.4364586c-.3273964 0-.5875893-.2685947-.5875893-.5957851v-6.4282646c0-.3271904.2601929-.5957851.5875893-.5957851h6.4364586c.3271904 0 .595787.2685947.595787.5957851z" fill="#cfcfff"/></g></g><g><g><path d="m40.817318 34.3052292v6.4282646c0 .3271904-.2685966.5957832-.595787.5957832h-6.4364586c-.3273964 0-.5875931-.2685928-.5875931-.5957832v-6.4282646c0-.3271904.2601967-.595787.5875931-.595787h6.4364586c.3271903-.0000001.595787.2685966.595787.595787z" fill="#fdc72e"/></g><g><path d="m50.2144508 34.3052292v6.4282646c0 .3271904-.2685966.5957832-.595787.5957832h-6.4364586c-.3273964 0-.5875893-.2685928-.5875893-.5957832v-6.4282646c0-.3271904.2601929-.595787.5875893-.595787h6.4364586c.3271904-.0000001.595787.2685966.595787.595787z" fill="#ed524e"/></g></g><g opacity=".2"><g><path d="m48.3162956 58.6775055h-13.4178619l-13.5221119-40.592186v-6.5527668c0-1.2149897.9982243-2.2130022 2.2134266-2.2130022h8.2709999z" fill="#fff"/></g><g><path d="m52.6384735 49.8854637v6.5788307c0 .7464943-.3731422 1.4061165-.9458847 1.8053207-.0173759.0086861-.0347519.026062-.0521278.0347481l-15.4488488-46.3465442c.1216278.060813.243042.1042509.3731422.1303129.1476898.0347509.295166.0521259.4428558.0521259.1474762 0 .2949524-.017375.4424324-.0521259.9460983-.1911268 1.5709686-1.1109505 1.5709686-2.0744247 0-.1387892.043438-.2691031.121624-.3818293v-.008688c.0173759-.026062.0347519-.043438.0606003-.0695z" fill="#fff"/></g></g></g><g><g><g><g><path d="m65.7102585 49.881134-2.6016121-.6879501c-.1327858-.4347572-.3139114-.8633232-.5252457-1.2677193l1.3582077-2.3182144c.084446-.1509132.0664711-.3377838-.060276-.4645271l-1.7748375-1.7749863c-.1267433-.1267433-.3199539-.1568069-.4708672-.0663185l-2.3239594 1.3582077-.2173767-.1087608c-.2051468-.1025734-.4164848-.1930618-.6337128-.2714653-.1388283-.0545311-.2717628-.0966797-.4105873-.1509132l-.6820526-2.5958672c-.0483398-.1688919-.1992531-.2835503-.3743362-.2835503h-2.5171661c-.1750832 0-.3320389.1146584-.3743362.2835503l-.0120811.0362549-.0723648.283844-.1086121.4344635-.4889946 1.8413048c-.4406509.144722-.8633232.3198051-1.2677193.5311394l-2.3179169-1.3582077c-.1509132-.0904884-.3441238-.0604248-.4708672.0663185l-1.140976 1.1409798-.4043999.4043961-.2294617.2296104c-.1267433.1267433-.144722.3136139-.060276.4645271l1.2254219 2.1068764.0060425.012085.1207008.1992531c-.012085.0241661-.0241699.0421486-.0302124.0663185-.1991005.3864174-.3620987.7908134-.488842 1.2072983l-2.6017609.6820526c-.1690407.0424423-.2897415.1933556-.2897415.3684349v2.5109825c0 .1871643.1207008.3321838.2897415.3743324l2.6017609.6882401c.132637.4344635.3077202.8630295.5250969 1.2615318l-1.3582077 2.3241081c-.084446.1509132-.0664673.3439751.060276.4648209l1.7748375 1.7805901c.1267433.1208458.3199539.1509132.4708672.0604248l2.3179169-1.3582115c.072506.0362549.1448708.0784035.2173767.1087608.2111893.1025734.4225273.1930618.6397552.2776566.1329346.0483398.2717628.0963821.4105873.1388283l.6820526 2.6076584c.0422974.1691856.1992531.283844.3743362.283844h2.5171661c.1750832 0 .3259964-.1146584.3743362-.283844l.6820526-2.6076584c.4406509-.1388283.8633232-.3139114 1.2616768-.5252457l.0060425.0061874.3259964.1930618.1991043.1146584 1.2495918.7244987.5432243.3198051c.0422974.0241661.0906372.0424423.1388283.0542336.1087646.0123787.223423-.0241699.3080139-.096386.012085-.0061874.0179825-.012085.024025-.0182724l1.5453758-1.5512733.2294617-.2293167c.1267471-.1208458.144722-.3139076.060276-.4648209l-1.2314644-2.1006851-.1267433-.223423c.012085-.0241661.0241699-.0421486.0302124-.0663185.1992493-.3805199.3681412-.7849197.4950333-1.1952133l2.6016121-.6882401c.1690448-.0421487.2897418-.1871682.2897418-.3743325v-2.5109825c0-.1750794-.120697-.3259926-.2897415-.368435z" fill="#ed524e"/></g></g></g><g><circle cx="55.732" cy="51.507" fill="#4f5d99" r="4.735"/></g><g><circle cx="55.732" cy="51.507" fill="#fff" r="3.715"/></g></g></g></svg>