<svg id="Layer_1" height="512" viewBox="0 0 50 50" width="512" xmlns="http://www.w3.org/2000/svg"><g><g><g><g style="fill:none;stroke:#000;stroke-linecap:round;stroke-linejoin:round;stroke-miterlimit:10;stroke-width:1.5"><path d="m48.1 24.4h-1.9c-.9 0-1.6-.7-1.6-1.6 0-.9.7-1.6 1.6-1.6h1.9c-.7-1.3-2.1-2.2-3.8-2-1.6.2-2.9 1.5-3.1 3.1-.3 2.2 1.4 4.1 3.6 4.1 1.4 0 2.7-.8 3.3-2z"/><g><path d="m41.5 21.2h-4.8"/><path d="m41.5 24.4h-4.8"/></g></g></g></g><g style="fill:none;stroke:#000;stroke-linecap:round;stroke-linejoin:round;stroke-miterlimit:10;stroke-width:1.5"><g><path d="m13.3 43.7c-.2.4-.6.7-1.1.7h-.7c-.6 0-1.2-.5-1.3-1.1-.1-.4-.4-.8-.8-1-.1 0-.2-.1-.3-.1-.3-.2-.8-.1-1.1.1-.2.2-.5.3-.8.3s-.7-.1-.9-.4l-.5-.5c-.5-.4-.5-1.2-.1-1.7.2-.1.3-.4.3-.7 0-.2 0-.3-.1-.5 0-.1-.1-.2-.1-.3-.2-.4-.5-.7-1-.8-.6-.1-1.1-.6-1.1-1.3v-.7c0-.6.5-1.2 1.1-1.3.4-.1.8-.4 1-.8 0-.1.1-.2.1-.3.1-.2.1-.7-.2-1.1-.4-.5-.3-1.2.1-1.7l.5-.5c.4-.3 1.1-.4 1.7 0 .4.3.8.3 1.2.1.1 0 .2-.1.3-.1.4-.2.7-.5.8-1 .1-.6.6-1.1 1.3-1.1h.7c.5 0 .9.3 1.1.7"/><path d="m13.3 38.5c-.4.3-.9.4-1.4.4-1.5 0-2.7-1.2-2.7-2.7s1.2-2.7 2.7-2.7c.5 0 1 .2 1.4.4"/></g><g><path d="m36.7 11.7v21.2"/><path d="m13.3 17.5v-13.6c0-1.2 1-2.2 2.1-2.2h19.1c1.2 0 2.1 1 2.1 2.2v.7"/><path d="m36.7 39.5v6.6c0 1.2-1 2.2-2.1 2.2h-19.2c-1.2 0-2.1-1-2.1-2.2v-22"/><path d="m26.6 4.5h-3.2"/><path d="m23.4 45.5h3.2"/><path d=""/></g><path d="m46.1 39.2h-27.8c-1.1 0-2-.9-2-2v-2c0-1.1.9-2 2-2h27.7c1.1 0 2 .9 2 2v2c.1 1.1-.8 2-1.9 2z"/><path d="m40.7 39v-5.7"/><g><path d="m25.2 24h-22.3c-.6 0-1-.4-1-1v-4.4c0-.6.4-1 1-1h22.2c.6 0 1 .4 1 1v4.4c.1.5-.4 1-.9 1z"/><path d="m19.9 23.9v-6.2"/><path d="m6.8 20.8h10.3"/><path d="m4.7 20.8h.2"/></g><g><path d="m44.8 36.6c-.4.4-1 .4-1.4 0s-.4-1.1 0-1.5 1-.4 1.4 0c.4.5.4 1.1 0 1.5z"/><path d="m44.9 36.7.8.8"/></g></g><g><g><g><path d="m44.8 8.7c0 1.6-1.2 2.8-2.7 2.8-.8 0-7.7 0-8.4 0-1.2 0-2.3-1-2.3-2.3s1-2.3 2.3-2.3c.3 0 .6.1.8.2.4-1.4 1.7-2.5 3.3-2.5 1.3 0 2.4.7 3 1.8.4-.3.9-.4 1.4-.4 1.4-.1 2.6 1.2 2.6 2.7z" style="fill:none;stroke:#000;stroke-linecap:round;stroke-linejoin:round;stroke-miterlimit:10;stroke-width:1.5"/></g></g></g><path d="m7.2 7.3c-3.2-2.8-6.1 2.9 0 5.6 6.1-2.8 3.2-8.5 0-5.6z" style="fill:none;stroke:#000;stroke-linecap:round;stroke-linejoin:round;stroke-miterlimit:10;stroke-width:1.5"/></g></svg>