<svg id="Layer_1" viewBox="0 0 512 512" xmlns="http://www.w3.org/2000/svg" data-name="Layer 1"><path d="m373.911 348.357v.028c21.679-.223 39.429 17.138 39.697 38.816.269 21.713-17.107 39.512-38.815 39.782-10.853.134-20.73-4.139-27.922-11.155-7.104-6.93-11.889-17.109-11.889-27.745h.028c-.111-10.819 4.157-20.663 11.155-27.836 6.93-7.104 17.109-11.889 27.745-11.889zm0 14.544c-13.418 0-24.66 11.472-24.411 25.181h.027c0 13.371 11.369 24.584 25.096 24.414 21.951-.272 32.833-27.127 17.013-42.558-4.56-4.448-10.872-7.187-17.724-7.063v.027zm24.46-33.803c-1.914-.787-3.901-1.488-5.952-2.1-2.61-.65-4.756-2.732-5.351-5.541l-2.779-12.886-20.716.257-2.321 12.23c-.378 2.734-2.305 5.131-5.122 5.97-3.48 1.039-8.773 3.113-11.831 4.883-2.304 1.432-5.321 1.508-7.756-.055l-11.111-7.168-14.467 14.831 7.136 10.479c1.543 2.178 1.822 5.128.472 7.637-1.874 3.477-3.918 8.169-4.949 11.938-.65 2.61-2.732 4.756-5.541 5.351l-12.888 2.779.258 20.715 12.232 2.322c2.734.378 5.131 2.305 5.97 5.122 1.039 3.481 3.112 8.769 4.883 11.828 1.432 2.304 1.508 5.321-.055 7.756l-7.17 11.114 14.831 14.467 10.478-7.135c2.178-1.542 5.127-1.821 7.637-.472 3.255 1.753 8.335 3.999 11.803 4.916 2.672.611 4.882 2.716 5.487 5.573l2.779 12.887 20.715-.258 2.322-12.232c.378-2.734 2.305-5.131 5.122-5.97 3.48-1.039 8.769-3.112 11.828-4.883 2.304-1.432 5.321-1.508 7.756.055l11.114 7.17 14.467-14.831-7.135-10.478c-1.543-2.178-1.822-5.127-.472-7.637 1.754-3.256 3.999-8.333 4.916-11.803.611-2.672 2.716-4.882 5.573-5.488l12.887-2.779-.258-20.715-12.232-2.321c-2.734-.378-5.131-2.305-5.97-5.122-1.039-3.479-3.113-8.771-4.883-11.828-1.432-2.304-1.508-5.321.055-7.756l7.17-11.114-14.831-14.467-10.479 7.135c-2.178 1.542-5.127 1.821-7.637.472-2.001-1.08-4-2.031-5.986-2.849zm2.016-14.749-3.149-14.6-.014.003c-.699-3.313-3.658-5.782-7.173-5.741l-32.207.4c-3.544-.148-6.752 2.324-7.424 5.913l-2.694 14.197-6.835 2.869-12.586-8.119-.002.003c-2.841-1.828-6.669-1.468-9.116 1.048l-22.553 23.12c-2.541 2.407-3.033 6.37-.997 9.353l8.148 11.966-2.81 6.845-14.602 3.149.003.014c-3.313.699-5.782 3.658-5.741 7.173l.401 32.207c-.148 3.544 2.324 6.752 5.913 7.424l14.198 2.694 2.869 6.833-8.121 12.588.003.002c-1.828 2.841-1.468 6.669 1.048 9.116l23.121 22.553c2.407 2.541 6.37 3.033 9.353.997l11.965-8.147 6.846 2.806 3.15 14.605.014-.003c.699 3.313 3.658 5.782 7.173 5.741l32.207-.401c3.544.148 6.752-2.324 7.424-5.913l2.695-14.198 6.833-2.869 12.588 8.121.002-.003c2.841 1.828 6.669 1.468 9.116-1.048l22.553-23.121c2.541-2.407 3.033-6.37.997-9.353l-8.147-11.965 2.806-6.846 14.605-3.15-.003-.014c3.313-.699 5.782-3.658 5.741-7.173l-.401-32.207c.148-3.544-2.324-6.752-5.913-7.424l-14.199-2.695-2.868-6.833 8.121-12.588-.003-.002c1.828-2.841 1.468-6.669-1.048-9.116l-23.12-22.553c-2.407-2.541-6.37-3.033-9.353-.997l-11.965 8.147-6.847-2.81zm-322.465 102.154v32.795c0 6.495 8.891 13.057 23.265 18.415 35.63 13.281 94.549 13.281 130.179 0 14.374-5.358 23.265-11.92 23.265-18.415v-32.795c-38.467 26.811-138.242 26.811-176.709 0zm0-78.355c0 6.496 8.891 13.058 23.264 18.415 35.63 13.281 94.55 13.281 130.18 0 14.374-5.357 23.264-11.92 23.264-18.415v-32.795c-38.467 26.811-138.242 26.811-176.709 0v32.795zm176.709 22.78v32.795c0 6.495-8.891 13.057-23.265 18.415-35.629 13.281-94.55 13.281-130.179 0-14.374-5.358-23.265-11.92-23.265-18.415v-32.795c38.468 26.811 138.241 26.811 176.709 0zm-162.028-20.547c-3.687-1.569-5.404-5.829-3.835-9.516s5.829-5.404 9.516-3.835l3.471 1.487c3.687 1.569 5.404 5.829 3.835 9.516s-5.829 5.404-9.516 3.835l-3.47-1.487zm0 56.032 3.47 1.487c3.687 1.569 7.947-.148 9.516-3.835s-.148-7.947-3.835-9.516l-3.471-1.487c-3.687-1.569-7.947.148-9.516 3.835s.148 7.947 3.835 9.516zm0 56.031c-3.687-1.569-5.404-5.829-3.835-9.516s5.829-5.404 9.516-3.835l3.471 1.488c3.687 1.569 5.404 5.829 3.835 9.516s-5.829 5.404-9.516 3.835l-3.47-1.488zm170.396-185.226h141.961c42.046 0 76.472-34.425 76.472-76.47s-34.411-76.472-76.472-76.472h-20.39v-.004c-3.54.004-6.645-2.582-7.187-6.188-4.937-32.67-38.465-52.925-69.692-42.349-5.561 1.884-10.71 4.661-15.276 8.16l-.005-.006c-3.315 2.528-8.099 1.738-10.42-1.727-28.612-42.702-88.217-50.591-126.86-16.882-15.058 13.136-25.456 31.472-28.392 52.201-.245 3.794-3.4 6.796-7.256 6.796h-12.443c-42.046 0-76.471 34.427-76.471 76.472 0 30.656 18.38 57.978 45.92 70.08 20.603-15.369 58.95-21.171 89.789-21.171 27.228 0 52.041 4.174 70.146 10.923 11.802 4.399 20.978 10.064 26.576 16.638zm-196.794 4.792c-1.849 3.344-2.827 6.878-2.827 10.563v166.725c0 13.19 12.516 24.45 32.752 31.993 39.059 14.559 101.233 14.559 140.292 0 20.236-7.543 32.752-18.803 32.752-31.993v-166.725c0-.271-.007-.542-.018-.811h135.803c50.074 0 91.016-40.94 91.016-91.013s-40.955-91.016-91.016-91.016h-14.445c-11.033-44.196-61.919-65.085-100.773-41.559-18.771-24.002-47.574-38.383-78.619-38.383-47.705 0-88.451 33.801-97.763 79.942h-6.321c-50.074 0-91.015 40.942-91.015 91.016 0 34.656 19.843 65.906 50.181 81.262zm17.281 1.472c4.031-3.32 10.099-6.49 17.701-9.324 35.63-13.28 94.55-13.28 130.18 0 10.448 3.894 17.997 8.425 21.343 13.104 1.051 1.896 1.922 3.024 1.922 5.311 0 6.495-8.891 13.057-23.265 18.415-35.629 13.28-94.55 13.28-130.179 0-14.374-5.358-23.265-11.92-23.265-18.415 0-2.432 1.247-4.874 3.562-7.259.767-.473 1.449-1.091 2.002-1.833z" fill-rule="evenodd"/></svg>