<svg id="Layer_5" enable-background="new 0 0 64 64" height="512" viewBox="0 0 64 64" width="512" xmlns="http://www.w3.org/2000/svg"><g><g><g><path d="m49 14c3.87 0 7 3.13 7 7s-3.13 7-7 7h-3-6-16-6-5c-2.76 0-5-2.24-5-5s2.24-5 5-5c.02 0 .04.01.06.01-.04-.33-.06-.67-.06-1.01 0-4.97 4.03-9 9-9 1.48 0 2.87.36 4.1 1 1.9-4.13 6.06-7 10.9-7 6.63 0 12 5.37 12 12z" fill="#e6e9ed"/></g><g><circle cx="24" cy="20" fill="#ff826e" r="2"/></g><g><circle cx="32" cy="20" fill="#ff826e" r="2"/></g><g><circle cx="40" cy="20" fill="#ff826e" r="2"/></g><g><path d="m46 28v3l-2.57.65c-.2.64-.47 1.25-.77 1.84l1.36 2.29-4.24 4.24-2.29-1.36c-.59.3-1.2.57-1.84.77l-.65 2.57h-3-3l-.65-2.57c-.64-.2-1.25-.47-1.84-.77l-2.29 1.36-2.02-2.02-2.22-2.22 1.36-2.29c-.3-.59-.57-1.2-.77-1.84l-2.57-.65v-3h6c0 4.42 3.58 8 8 8s8-3.58 8-8z" fill="#fcd770"/></g><g><path d="m36 56h4v6h-4z" fill="#b4dd7f"/></g><g><path d="m36 56v6h-4v-8h4z" fill="#b4dd7f"/></g><g><path d="m32 54v8h-4v-10h4z" fill="#b4dd7f"/></g><g><path d="m62 59v3h-14v-3c0-3.87 3.13-7 7-7 1.94 0 3.68.78 4.95 2.05s2.05 3.01 2.05 4.95z" fill="#4fc1e9"/></g><g><circle cx="55" cy="48" fill="#f0d0b4" r="4"/></g><g><circle cx="12" cy="52" fill="#fcd770" r="10"/></g></g><g><path d="m58.305 51.723c1.031-.917 1.695-2.238 1.695-3.723 0-2.414-1.721-4.434-4-4.899v-3.101c0-1.654-1.346-3-3-3h-8.787l1.064-1.064-1.48-2.49c.147-.317.281-.636.4-.956l2.803-.713v-2.777h2c4.411 0 8-3.589 8-8 0-4.084-3.076-7.463-7.034-7.942-.484-6.73-6.114-12.058-12.966-12.058-4.721 0-9.076 2.596-11.355 6.691-1.163-.459-2.385-.691-3.645-.691-5.514 0-10 4.486-10 10v.083c-2.834.478-5 2.949-5 5.917 0 3.309 2.691 6 6 6h4v2.777l2.802.713c.119.319.252.639.4.956l-1.48 2.49 1.065 1.064h-5.787c-1.654 0-3 1.346-3 3v1.051c-5.598.507-10 5.221-10 10.949 0 6.065 4.935 11 11 11s11-4.935 11-11c0-5.728-4.402-10.442-10-10.949v-1.051c0-.551.449-1 1-1h7.787l2.278 2.278 2.49-1.48c.317.147.636.281.956.4l.712 2.802h2.777v8h-4v12h14v-8h-4v-2h-4v-1-1-8h2.777l.713-2.802c.319-.119.639-.252.956-.4l2.49 1.48 2.277-2.278h10.787c.551 0 1 .449 1 1v3.101c-2.279.465-4 2.484-4 4.899 0 1.485.664 2.806 1.695 3.723-2.765 1.261-4.695 4.045-4.695 7.277v4h16v-4c0-3.232-1.93-6.016-4.695-7.277zm-37.305.277c0 4.962-4.038 9-9 9s-9-4.038-9-9 4.038-9 9-9 9 4.038 9 9zm10 9h-2v-8h2zm-22-38c0-2.187 1.764-3.97 3.944-4l1.232.005-.123-1.11c-.032-.293-.053-.592-.053-.895 0-4.411 3.589-8 8-8 1.275 0 2.502.298 3.647.886l.929.477.437-.949c1.792-3.896 5.712-6.414 9.987-6.414 6.065 0 11 4.935 11 11v1h1c3.309 0 6 2.691 6 6s-2.691 6-6 6h-36c-2.206 0-4-1.794-4-4zm29.92 6c-.488 3.387-3.401 6-6.92 6s-6.432-2.613-6.92-6zm-1.92 28h2v4h-2zm-2-2v6h-2v-6zm4.621-16.236-2.095-1.246-.493.254c-.558.288-1.124.525-1.683.704l-.528.169-.599 2.355h-4.445l-.599-2.354-.528-.169c-.56-.179-1.125-.416-1.683-.704l-.493-.254-2.095 1.246-3.143-3.143 1.246-2.095-.254-.493c-.288-.558-.525-1.124-.704-1.683l-.169-.528-2.356-.6v-1.223h4.059c.5 4.493 4.317 8 8.941 8s8.441-3.507 8.941-8h4.059v1.223l-2.354.599-.169.528c-.179.56-.416 1.125-.704 1.683l-.254.493 1.246 2.095zm15.379 6.236c1.654 0 3 1.346 3 3s-1.346 3-3 3-3-1.346-3-3 1.346-3 3-3zm6 16h-12v-2c0-3.309 2.691-6 6-6s6 2.691 6 6z"/><path d="m11 45v2h-3v3c0 1.654 1.346 3 3 3h2c.551 0 1 .449 1 1v1h-3c-.551 0-1-.449-1-1h-2c0 1.654 1.346 3 3 3v2h2v-2h3v-3c0-1.654-1.346-3-3-3h-2c-.551 0-1-.449-1-1v-1h3c.551 0 1 .449 1 1h2c0-1.654-1.346-3-3-3v-2z"/><path d="m24 17c-1.654 0-3 1.346-3 3s1.346 3 3 3 3-1.346 3-3-1.346-3-3-3zm0 4c-.551 0-1-.449-1-1s.449-1 1-1 1 .449 1 1-.449 1-1 1z"/><path d="m32 17c-1.654 0-3 1.346-3 3s1.346 3 3 3 3-1.346 3-3-1.346-3-3-3zm0 4c-.551 0-1-.449-1-1s.449-1 1-1 1 .449 1 1-.449 1-1 1z"/><path d="m40 17c-1.654 0-3 1.346-3 3s1.346 3 3 3 3-1.346 3-3-1.346-3-3-3zm0 4c-.551 0-1-.449-1-1s.449-1 1-1 1 .449 1 1-.449 1-1 1z"/><path d="m37 5v2c3.86 0 7 3.14 7 7 0 .297-.019.589-.054.876l1.984.248c.047-.37.07-.748.07-1.124 0-4.962-4.038-9-9-9z"/></g></g></svg>