<?xml version="1.0" encoding="UTF-8"?>
<svg version="1.1" xmlns="http://www.w3.org/2000/svg" width="512" height="512">
<path d="M0 0 C0.96390595 -0.00382555 1.92781189 -0.00765109 2.92092711 -0.01159257 C6.14741871 -0.02190269 9.37373169 -0.01793416 12.60023499 -0.01396179 C14.91485763 -0.01830934 17.22947884 -0.02349263 19.5440979 -0.02944946 C25.82915234 -0.04284555 32.11414667 -0.04341748 38.3992126 -0.04088616 C43.64538672 -0.03981694 48.89154865 -0.04469853 54.13772017 -0.04949158 C67.22088885 -0.06122326 80.30402327 -0.06036046 93.38719416 -0.05393478 C104.74380499 -0.04876532 116.10033004 -0.06002251 127.45692389 -0.07903299 C139.12453505 -0.09841405 150.79210195 -0.10637557 162.45972925 -0.10290974 C169.00756579 -0.10109565 175.55532376 -0.10374582 182.10314751 -0.11762428 C188.25994652 -0.13018559 194.41657365 -0.12827445 200.57336998 -0.11521339 C202.83285327 -0.11284444 205.09234859 -0.11559367 207.35181808 -0.12383652 C210.43648705 -0.13427834 213.52057655 -0.12622355 216.60522461 -0.11352539 C217.4990058 -0.12089968 218.39278699 -0.12827396 219.31365246 -0.13587171 C226.1933636 -0.07630445 231.66834079 1.3974533 237.05360413 5.94819641 C237.59372131 6.3851886 238.1338385 6.82218079 238.69032288 7.27241516 C243.78023485 13.31149487 244.94943145 19.16578429 244.82020569 26.88960266 C244.82078979 27.81736008 244.8213739 28.74511749 244.82197571 29.70098877 C244.81920751 32.74211638 244.78817544 35.7822418 244.75672913 38.82319641 C244.74926224 40.94168055 244.74357142 43.06017163 244.73957825 45.17866516 C244.72435725 50.73544113 244.68510575 56.29179422 244.64076233 61.84840393 C244.59973337 67.52614116 244.58155096 73.20394719 244.56141663 78.88179016 C244.5186082 90.00827732 244.45039965 101.1344516 244.36610413 112.26069641 C244.95555313 112.25181396 245.54500214 112.24293152 246.15231323 112.23377991 C252.33374756 112.14471057 258.51499712 112.08471705 264.69691467 112.04096985 C266.9984224 112.02095814 269.29987995 111.9937401 271.60121155 111.9589386 C274.92531274 111.90995943 278.24873689 111.8876224 281.57313538 111.87007141 C282.58817642 111.84942627 283.60321747 111.82878113 284.64901733 111.80751038 C295.97497551 111.80401936 305.16060354 115.42746806 313.36610413 123.26069641 C323.89809544 134.29321801 324.94475111 145.80377394 324.61610413 160.44819641 C324.53360413 165.66632141 324.45110413 170.88444641 324.36610413 176.26069641 C334.92610413 176.26069641 345.48610413 176.26069641 356.36610413 176.26069641 C356.36610413 223.78069641 356.36610413 271.30069641 356.36610413 320.26069641 C345.80610413 320.26069641 335.24610413 320.26069641 324.36610413 320.26069641 C324.41251038 324.82526672 324.45891663 329.38983704 324.50672913 334.09272766 C324.52719569 337.00486014 324.54645326 339.91690247 324.56141663 342.82905579 C324.58521961 347.43951606 324.61321 352.04965505 324.66786194 356.65986633 C324.71170036 360.38168518 324.73532013 364.10315895 324.7456131 367.82521629 C324.75293706 369.23684296 324.7672368 370.64845328 324.78902435 372.0599308 C324.98494222 385.29269602 322.67145363 395.51311247 313.36610413 405.26069641 C304.46851541 413.75461381 294.62307952 416.90014665 282.47865295 416.71479797 C280.94005615 416.71567413 280.94005615 416.71567413 279.37037659 416.71656799 C276.02093714 416.7138083 272.672417 416.68281654 269.32313538 416.65132141 C266.98473598 416.64385151 264.64633028 416.63816212 262.30792236 416.63417053 C256.18403019 416.61897335 250.06052371 416.57974259 243.93678284 416.53535461 C237.67564611 416.49427398 231.41444645 416.47613226 225.1532135 416.45600891 C212.89064788 416.41324246 200.62846857 416.34294108 188.36610413 416.26069641 C188.36610413 426.82069641 188.36610413 437.38069641 188.36610413 448.26069641 C190.94422913 448.17819641 193.52235413 448.09569641 196.17860413 448.01069641 C207.94646972 447.89742524 216.74997329 451.03546754 225.36610413 459.26069641 C236.21354226 470.62365636 236.36610413 480.07175089 236.36610413 496.26069641 C151.88610413 496.26069641 67.40610413 496.26069641 -19.63389587 496.26069641 C-19.63389587 480.07175089 -19.48133401 470.62365636 -8.63389587 459.26069641 C-0.01776503 451.03546754 8.78573853 447.89742524 20.55360413 448.01069641 C23.13172913 448.09319641 25.70985413 448.17569641 28.36610413 448.26069641 C28.36610413 437.70069641 28.36610413 427.14069641 28.36610413 416.26069641 C25.24294739 416.28164368 22.11979065 416.30259094 18.9019928 416.32417297 C8.55643015 416.39059963 -1.78914217 416.43469437 -12.13486195 416.4679451 C-18.40443054 416.48877542 -24.67377971 416.51701013 -30.94322205 416.56245422 C-36.99921499 416.60607394 -43.05499751 416.62986775 -49.11113548 416.64020538 C-51.41588844 416.64756781 -53.72063053 416.66194463 -56.02529335 416.68361664 C-59.26592577 416.71286441 -62.50570049 416.71664343 -65.7464447 416.71479797 C-66.68872421 416.72917908 -67.63100372 416.74356018 -68.60183716 416.75837708 C-79.5926662 416.69112324 -88.69821303 412.83634827 -96.63389587 405.26069641 C-106.33488186 395.09867347 -108.21481239 384.3969244 -107.90579414 370.82288551 C-107.85543124 368.44607915 -107.83707057 366.07090701 -107.8276062 363.69360352 C-107.79779887 356.94447244 -107.73265173 350.1968001 -107.59654236 343.44892883 C-107.51508494 339.2989293 -107.48761881 335.1514292 -107.49381828 331.00067711 C-107.48571245 329.43008516 -107.4574403 327.85945369 -107.40793037 326.28962135 C-106.9606651 317.30266079 -106.9606651 317.30266079 -110.99568176 309.63114929 C-113.84098373 307.49382482 -113.84098373 307.49382482 -116.81039429 305.88098145 C-127.79399245 299.57797109 -134.98814655 285.50429119 -138.63389587 273.69819641 C-142.5644626 254.88762707 -139.77879494 236.32248706 -129.80039978 220.02973938 C-126.24917098 214.64417975 -121.92546769 209.06447281 -116.20195007 205.92799377 C-110.72032729 202.82328618 -110.72032729 202.82328618 -107.73994446 197.50788879 C-107.44633778 194.13242557 -107.45746646 190.88117245 -107.57920837 187.49507141 C-107.58136856 185.65129913 -107.58136856 185.65129913 -107.58357239 183.77027893 C-107.59504536 179.84838947 -107.67312447 175.93160611 -107.75889587 172.01069641 C-107.81294788 168.10495637 -107.85240958 164.20003762 -107.86994934 160.29396057 C-107.88407485 157.86837506 -107.92047541 155.44277904 -107.98304749 153.01795959 C-108.11613668 141.1722741 -104.86535994 131.88335877 -96.63389587 123.26069641 C-87.39912893 114.4448981 -77.39780671 111.61467429 -64.84092712 111.87007141 C-63.76888535 111.8757312 -62.69684357 111.88139099 -61.59231567 111.88722229 C-58.209864 111.90939127 -54.82852063 111.95955079 -51.44639587 112.01069641 C-49.13586443 112.03078658 -46.82531618 112.0490329 -44.51475525 112.06538391 C-38.8874319 112.10919175 -33.2607431 112.17590508 -27.63389587 112.26069641 C-27.64277832 111.08829407 -27.65166077 109.91589172 -27.66081238 108.70796204 C-27.74199836 97.64396737 -27.80190945 86.58003337 -27.84114456 75.51580811 C-27.86199406 69.82794248 -27.89026391 64.14031787 -27.93565369 58.45259094 C-27.97920491 52.96070495 -28.00305282 47.46905039 -28.01340485 41.977005 C-28.02077952 39.88468281 -28.03518055 37.79237287 -28.0568161 35.70014954 C-28.08597302 32.76302498 -28.0898467 29.82684931 -28.08799744 26.88960266 C-28.10237854 26.03004471 -28.11675964 25.17048676 -28.13157654 24.28488159 C-28.084989 17.41923506 -26.20282484 12.24564626 -21.70420837 7.01850891 C-21.06225525 6.47968079 -20.42030212 5.94085266 -19.75889587 5.38569641 C-18.80370056 4.5542511 -18.80370056 4.5542511 -17.82920837 3.70600891 C-12.17477032 -0.01666383 -6.52559447 -0.02752456 0 0 Z M-10.63389587 21.26069641 C-11.97282064 25.2774707 -11.78131892 29.14595439 -11.77915955 33.33442688 C-11.78251816 34.26317627 -11.78587677 35.19192566 -11.78933716 36.14881897 C-11.7988516 39.22518748 -11.80079054 42.30150159 -11.80186462 45.37788391 C-11.80507693 47.51396202 -11.80844098 49.65003991 -11.81195068 51.78611755 C-11.81794324 56.26674408 -11.81979046 60.74735131 -11.81919861 65.22798157 C-11.819097 70.97035167 -11.83274784 76.7125981 -11.84997082 82.45493889 C-11.86108771 86.86784941 -11.86311791 91.28073001 -11.86258888 95.69365311 C-11.86376952 97.81075085 -11.86819597 99.92784935 -11.87592125 102.04493332 C-11.88571446 105.00610267 -11.88284562 107.96700323 -11.8768158 110.92817688 C-11.8824353 111.80315826 -11.88805481 112.67813965 -11.8938446 113.57963562 C-11.89949569 119.68503387 -11.89949569 119.68503387 -9.63389587 125.26069641 C-5.47605423 128.84315476 -1.13042504 128.67060584 4.10365295 128.60127258 C4.97245087 128.60171066 5.84124878 128.60214874 6.7363739 128.6026001 C9.59885887 128.60051543 12.46075312 128.57719954 15.32313538 128.55366516 C17.31138794 128.54806806 19.29964465 128.5437985 21.28790283 128.540802 C26.5142006 128.52936222 31.74024721 128.49990236 36.96644592 128.46669006 C42.30210472 128.43597059 47.63780421 128.42229264 52.973526 128.40718079 C63.4378289 128.37503194 73.9019456 128.32384594 84.36610413 128.26069641 C84.35563049 129.0576593 84.34515686 129.85462219 84.33436584 130.67573547 C84.29278641 134.28735703 84.26677151 137.8989282 84.24110413 141.51069641 C84.21596741 143.39208313 84.21596741 143.39208313 84.19032288 145.31147766 C84.18387756 146.5167511 84.17743225 147.72202454 84.17079163 148.96382141 C84.16031799 150.07402649 84.14984436 151.18423157 84.13905334 152.32807922 C84.36142079 155.20020583 84.87328837 156.83293377 86.36610413 159.26069641 C90.45142486 159.56507986 92.4888591 158.91920325 95.84925842 156.61445618 C96.70331772 156.03708206 97.55737701 155.45970795 98.43731689 154.86483765 C99.34580887 154.2336351 100.25430084 153.60243256 101.19032288 152.95210266 C102.13293472 152.31078903 103.07554657 151.6694754 104.04672241 151.00872803 C107.05654906 148.95766392 110.05518765 146.89089596 113.05360413 144.82319641 C116.06508606 142.76268352 119.07872344 140.70535406 122.09262085 138.64837646 C123.96759617 137.36691678 125.8406865 136.08269401 127.71173096 134.79550171 C128.55633377 134.21497543 129.40093658 133.63444916 130.27113342 133.03633118 C131.01550156 132.5233699 131.75986969 132.01040863 132.52679443 131.48190308 C136.41220868 128.90218864 139.77975328 129.10904597 144.31654358 129.10298157 C145.13785767 129.09790085 145.95917175 129.09282013 146.80537415 129.08758545 C148.59236898 129.07687079 150.37937732 129.06825492 152.16639137 129.06146622 C154.99501216 129.04969387 157.82347911 129.03024492 160.65203857 129.00834656 C168.69559103 128.9466775 176.73912862 128.89269029 184.78285217 128.85932922 C189.70008896 128.83838401 194.6170469 128.80307997 199.53412437 128.75857162 C201.40835983 128.74440803 203.28264464 128.73568838 205.15693092 128.73251724 C207.78074432 128.72760861 210.40381799 128.70445156 213.02748108 128.67720032 C213.80117538 128.68020645 214.57486969 128.68321259 215.37200928 128.68630981 C219.8535267 128.61718527 222.90366813 128.20081755 226.36610413 125.26069641 C229.06563509 120.86921643 228.6549815 115.97070237 228.64076233 110.9757843 C228.64587326 110.04834915 228.65098419 109.120914 228.65625 108.16537476 C228.67013141 105.10463478 228.66919036 102.04412034 228.66688538 98.98335266 C228.67077298 96.85252804 228.67510779 94.72170419 228.67987061 92.59088135 C228.68732961 88.12638333 228.68704374 83.6619644 228.68177795 79.19746399 C228.67598255 73.47983719 228.69291776 67.76253424 228.71612263 62.04496098 C228.7308627 57.64486807 228.7317313 53.24485313 228.7286129 48.84473991 C228.72912593 46.73683976 228.73436026 44.62893522 228.74442482 42.52105904 C228.75677756 39.57216027 228.75000441 36.62389192 228.73841858 33.67500305 C228.74606232 32.80675903 228.75370605 31.93851501 228.76158142 31.04396057 C228.71828673 26.0518931 228.16072857 22.57740094 225.36610413 18.26069641 C221.98414799 16.56971834 218.14131227 17.11275153 214.42082214 17.11352539 C213.48271851 17.1098487 212.54461488 17.10617201 211.57808387 17.10238391 C208.41513336 17.09131615 205.25221566 17.08749803 202.08924866 17.08369446 C199.82946162 17.07743225 197.56967561 17.07078567 195.30989075 17.06378174 C189.15704785 17.04635182 183.00421274 17.035815 176.85135126 17.02757621 C173.01098017 17.02243132 169.17061153 17.01635543 165.33024216 17.01006508 C154.70158488 16.993194 144.07292976 16.97855809 133.44426155 16.97131634 C130.68562443 16.96940639 127.92698731 16.96748606 125.16835022 16.9655304 C124.48268907 16.96504666 123.79702791 16.96456292 123.09058915 16.96406452 C111.9774081 16.95575996 100.86433454 16.93041568 89.75120045 16.89794972 C78.34702638 16.86490449 66.94292624 16.84720292 55.53869712 16.8436721 C49.1333784 16.84131601 42.7282296 16.83228291 36.32295609 16.80721092 C30.2999808 16.78401637 24.27728837 16.77966221 18.25428009 16.78997231 C16.04029528 16.79046985 13.82629695 16.78408563 11.61235428 16.77041626 C8.59634365 16.75283245 5.58136307 16.75973683 2.56535339 16.77294922 C1.68345089 16.76197997 0.80154839 16.75101073 -0.10707843 16.73970908 C-4.96707189 16.79132744 -7.67999466 16.97739516 -10.63389587 21.26069641 Z M-85.88389587 137.69819641 C-91.75986118 144.90891101 -91.78477933 152.88598785 -91.73155212 161.81538391 C-91.73013718 162.71693207 -91.72872223 163.61848022 -91.7272644 164.54734802 C-91.72169327 167.41016541 -91.70914613 170.2729029 -91.69639587 173.13569641 C-91.69137714 175.08361194 -91.68681489 177.03152871 -91.682724 178.97944641 C-91.6717333 183.73989359 -91.65448864 188.50028148 -91.63389587 193.26069641 C-90.87882751 193.24498596 -90.12375916 193.22927551 -89.34580994 193.21308899 C-85.85858431 193.14996094 -82.37147954 193.11146144 -78.88389587 193.07319641 C-77.69666931 193.04805969 -76.50944275 193.02292297 -75.28623962 192.99702454 C-64.42241529 192.9079768 -54.56162365 194.54504765 -45.00889587 199.88569641 C-44.37918884 200.23197083 -43.74948181 200.57824524 -43.10069275 200.93501282 C-29.07959178 208.93735211 -20.19780867 221.26371306 -14.63389587 236.26069641 C-13.64389587 240.22069641 -12.65389587 244.18069641 -11.63389587 248.26069641 C-1.07389587 248.26069641 9.48610413 248.26069641 20.36610413 248.26069641 C20.36610413 240.34069641 20.36610413 232.42069641 20.36610413 224.26069641 C36.20610413 224.26069641 52.04610413 224.26069641 68.36610413 224.26069641 C68.36610413 250.66069641 68.36610413 277.06069641 68.36610413 304.26069641 C73.64610413 304.26069641 78.92610413 304.26069641 84.36610413 304.26069641 C84.36610413 267.30069641 84.36610413 230.34069641 84.36610413 192.26069641 C100.20610413 192.26069641 116.04610413 192.26069641 132.36610413 192.26069641 C132.36610413 229.22069641 132.36610413 266.18069641 132.36610413 304.26069641 C137.64610413 304.26069641 142.92610413 304.26069641 148.36610413 304.26069641 C148.36610413 272.58069641 148.36610413 240.90069641 148.36610413 208.26069641 C164.20610413 208.26069641 180.04610413 208.26069641 196.36610413 208.26069641 C196.36610413 221.46069641 196.36610413 234.66069641 196.36610413 248.26069641 C212.20610413 248.26069641 228.04610413 248.26069641 244.36610413 248.26069641 C244.36610413 224.50069641 244.36610413 200.74069641 244.36610413 176.26069641 C265.48610413 176.26069641 286.60610413 176.26069641 308.36610413 176.26069641 C309.85005822 155.63616383 309.85005822 155.63616383 302.36610413 137.26069641 C292.14429198 127.11189721 280.25594672 127.91995437 266.67103577 127.74580383 C264.7572898 127.71403027 262.8437445 127.66613855 260.93080139 127.60224915 C258.15718971 127.51105735 255.38708098 127.47222813 252.61219788 127.44429016 C251.76000168 127.40613693 250.90780548 127.3679837 250.02978516 127.32867432 C247.56494938 127.33674609 245.68965202 127.42911649 243.36610413 128.26069641 C241.63963469 130.15111719 240.53978687 131.97540925 239.40335083 134.26473999 C236.7045342 139.45802752 231.75107521 141.94639221 226.36512756 143.6608429 C220.30416581 144.87313393 214.0876965 144.53529573 207.93327332 144.42686462 C205.31485986 144.38487464 202.69747778 144.36903391 200.07875061 144.36103821 C192.63884422 144.33731986 185.20004503 144.29685049 177.76112366 144.16841125 C173.19192077 144.09141827 168.62511097 144.0697289 164.05531311 144.0816803 C162.33312305 144.07611788 160.61086051 144.05096614 158.88929749 144.00416565 C145.69304828 143.65674199 137.71752119 146.89744661 127.23439217 154.8674221 C124.30191313 157.054316 121.23503096 159.00423494 118.15907288 160.98335266 C113.99928305 163.71489042 113.99928305 163.71489042 109.84242249 166.45088196 C108.17843234 167.54700433 106.51253046 168.64022285 104.84657288 169.73335266 C103.88646301 170.36507385 102.92635315 170.99679504 101.93714905 171.6476593 C95.38592683 175.75780318 90.06878167 175.91216665 82.36610413 175.26069641 C78.74110413 173.82319641 78.74110413 173.82319641 76.36610413 172.26069641 C75.37610413 171.93069641 74.38610413 171.60069641 73.36610413 171.26069641 C72.30360413 169.51069641 72.30360413 169.51069641 71.36610413 167.26069641 C71.02965881 166.57104797 70.6932135 165.88139954 70.34657288 165.17085266 C69.02971709 161.26225681 68.90602354 157.5471311 68.74110413 153.44819641 C68.70243225 152.65993469 68.66376038 151.87167297 68.62391663 151.05952454 C68.53021568 149.12694261 68.44709634 147.19385265 68.36610413 145.26069641 C67.44648392 145.25483017 66.52686371 145.24896393 65.57937622 145.24291992 C56.88476971 145.18485726 48.19041639 145.11270317 39.49605656 145.0249815 C35.02689503 144.98037995 30.55782252 144.9411017 26.08851624 144.91426086 C21.77004116 144.88812546 17.45191052 144.84765178 13.13364983 144.79751015 C11.49159997 144.78091033 9.84949064 144.76935339 8.20736885 144.7630825 C-12.67867065 144.67530184 -12.67867065 144.67530184 -20.00889587 137.94819641 C-20.63538025 137.3951886 -21.26186462 136.84218079 -21.90733337 136.27241516 C-24.0196286 133.8112567 -25.22472754 131.17022619 -26.63389587 128.26069641 C-32.30811816 128.21095945 -37.98221126 128.17481821 -43.65660095 128.15083313 C-45.5837068 128.14082554 -47.51079765 128.12721531 -49.43785095 128.1098175 C-52.220685 128.08533721 -55.00331688 128.07416063 -57.78623962 128.06538391 C-58.63661301 128.05506134 -59.48698639 128.04473877 -60.36312866 128.03410339 C-70.72695448 128.03219455 -78.70814328 129.74435016 -85.88389587 137.69819641 Z M260.36610413 192.26069641 C260.36610413 229.22069641 260.36610413 266.18069641 260.36610413 304.26069641 C286.76610413 304.26069641 313.16610413 304.26069641 340.36610413 304.26069641 C340.36610413 267.30069641 340.36610413 230.34069641 340.36610413 192.26069641 C313.96610413 192.26069641 287.56610413 192.26069641 260.36610413 192.26069641 Z M100.36610413 208.26069641 C100.36610413 239.94069641 100.36610413 271.62069641 100.36610413 304.26069641 C105.64610413 304.26069641 110.92610413 304.26069641 116.36610413 304.26069641 C116.36610413 272.58069641 116.36610413 240.90069641 116.36610413 208.26069641 C111.08610413 208.26069641 105.80610413 208.26069641 100.36610413 208.26069641 Z M-112.04014587 225.32319641 C-121.88279711 237.28877243 -124.09910219 250.18704087 -122.63389587 265.26069641 C-120.29348358 277.65930916 -112.52675535 288.60770246 -102.32139587 295.91694641 C-90.23878912 303.61960821 -77.16342806 305.2482935 -63.15733337 302.60444641 C-50.13464253 298.7010042 -39.50652341 289.61139914 -32.92295837 277.83491516 C-27.29587716 266.5978045 -26.58350215 252.81405737 -30.19639587 240.76069641 C-35.14218041 228.16984353 -44.48532589 218.11623984 -56.63389587 212.26069641 C-62.78251853 209.72926421 -68.31345336 208.73659379 -74.94639587 208.82319641 C-76.18860901 208.83564392 -76.18860901 208.83564392 -77.45591736 208.8483429 C-91.41826841 209.2305563 -102.4967842 215.23964445 -112.04014587 225.32319641 Z M164.36610413 224.26069641 C164.36610413 250.66069641 164.36610413 277.06069641 164.36610413 304.26069641 C169.64610413 304.26069641 174.92610413 304.26069641 180.36610413 304.26069641 C180.36610413 277.86069641 180.36610413 251.46069641 180.36610413 224.26069641 C175.08610413 224.26069641 169.80610413 224.26069641 164.36610413 224.26069641 Z M36.36610413 240.26069641 C36.36610413 261.38069641 36.36610413 282.50069641 36.36610413 304.26069641 C41.64610413 304.26069641 46.92610413 304.26069641 52.36610413 304.26069641 C52.36610413 283.14069641 52.36610413 262.02069641 52.36610413 240.26069641 C47.08610413 240.26069641 41.80610413 240.26069641 36.36610413 240.26069641 Z M-11.63389587 264.26069641 C-12.95389587 268.88069641 -14.27389587 273.50069641 -15.63389587 278.26069641 C-16.79541036 281.13588002 -17.91152453 283.78264972 -19.32139587 286.51069641 C-19.66315857 287.17835022 -20.00492126 287.84600403 -20.35704041 288.53388977 C-28.18881593 303.2127024 -41.81282456 312.87552064 -57.54527283 317.86714172 C-64.53499746 319.69961143 -71.51720441 319.48493032 -78.69639587 319.38569641 C-79.94356384 319.37667297 -81.19073181 319.36764954 -82.47569275 319.35835266 C-85.52851105 319.33495942 -88.58122944 319.29909473 -91.63389587 319.26069641 C-91.63389587 324.87069641 -91.63389587 330.48069641 -91.63389587 336.26069641 C40.36610413 336.26069641 172.36610413 336.26069641 308.36610413 336.26069641 C308.36610413 330.98069641 308.36610413 325.70069641 308.36610413 320.26069641 C287.24610413 320.26069641 266.12610413 320.26069641 244.36610413 320.26069641 C244.36610413 301.78069641 244.36610413 283.30069641 244.36610413 264.26069641 C228.52610413 264.26069641 212.68610413 264.26069641 196.36610413 264.26069641 C196.36610413 277.46069641 196.36610413 290.66069641 196.36610413 304.26069641 C201.64610413 304.26069641 206.92610413 304.26069641 212.36610413 304.26069641 C212.36610413 309.54069641 212.36610413 314.82069641 212.36610413 320.26069641 C143.72610413 320.26069641 75.08610413 320.26069641 4.36610413 320.26069641 C4.36610413 314.98069641 4.36610413 309.70069641 4.36610413 304.26069641 C9.64610413 304.26069641 14.92610413 304.26069641 20.36610413 304.26069641 C20.36610413 291.06069641 20.36610413 277.86069641 20.36610413 264.26069641 C9.80610413 264.26069641 -0.75389587 264.26069641 -11.63389587 264.26069641 Z M-91.63389587 352.26069641 C-93.11784997 372.88522899 -93.11784997 372.88522899 -85.63389587 391.26069641 C-78.39977903 398.44314099 -71.58509518 400.38259149 -61.42343426 400.38933086 C-59.57460739 400.39416753 -59.57460739 400.39416753 -57.68843049 400.39910191 C-56.32883677 400.39763092 -54.96924316 400.39606322 -53.60964966 400.39440918 C-52.15895523 400.39627808 -50.70826131 400.3985791 -49.25756818 400.4012745 C-45.27514006 400.40738916 -41.29273293 400.4072593 -37.31030118 400.40608013 C-33.01366755 400.40587604 -28.71704065 400.41139567 -24.42041016 400.4161377 C-16.00401872 400.42444295 -7.58763429 400.42719248 0.8287609 400.42775007 C7.67017071 400.42822529 14.51157821 400.43028031 21.35298729 400.4334507 C40.7507586 400.44225689 60.14852438 400.44687012 79.54629771 400.44612022 C81.11479598 400.44606029 81.11479598 400.44606029 82.71498108 400.44599915 C83.76192368 400.44595826 84.80886627 400.44591738 85.8875344 400.44587526 C102.85571435 400.44546879 119.8238721 400.45503876 136.79204563 400.46913751 C154.21594183 400.48350066 171.6398272 400.49040773 189.06372947 400.48954374 C198.84548262 400.48921175 208.62721252 400.49195964 218.40896034 400.50272179 C226.7371297 400.51182597 235.06526525 400.5140027 243.39343742 400.50721236 C247.64160174 400.50394677 251.88970119 400.50389192 256.13785934 400.51256561 C260.02957 400.52042973 263.92116432 400.51900008 267.81287213 400.51028148 C269.21795854 400.5087463 270.62305362 400.51056333 272.02812979 400.51614156 C286.63453844 400.68944717 286.63453844 400.68944717 299.36610413 394.26069641 C311.42368603 382.11636932 308.36610413 369.99936488 308.36610413 352.26069641 C176.36610413 352.26069641 44.36610413 352.26069641 -91.63389587 352.26069641 Z M44.36610413 416.26069641 C44.36610413 426.82069641 44.36610413 437.38069641 44.36610413 448.26069641 C86.60610413 448.26069641 128.84610413 448.26069641 172.36610413 448.26069641 C172.36610413 437.70069641 172.36610413 427.14069641 172.36610413 416.26069641 C130.12610413 416.26069641 87.88610413 416.26069641 44.36610413 416.26069641 Z M3.70204163 471.97163391 C1.24181281 474.73501888 -0.45071014 476.7111392 -1.63389587 480.26069641 C70.96610413 480.26069641 143.56610413 480.26069641 218.36610413 480.26069641 C215.01231742 473.55312299 211.39496051 469.37104976 204.74110413 465.88569641 C199.47828836 464.50074489 194.45610946 464.13409262 189.02349854 464.12698364 C187.94727603 464.12358531 187.94727603 464.12358531 186.84931165 464.12011832 C184.45669919 464.11381258 182.06414387 464.11460547 179.67152405 464.11543274 C177.95127286 464.1124391 176.23102234 464.1090361 174.51077271 464.10525513 C169.84537964 464.09643157 165.18000493 464.0940777 160.51460433 464.09343934 C157.59748568 464.09272788 154.68037167 464.09059174 151.76325417 464.08794212 C141.57967966 464.07869402 131.39611824 464.07460655 121.21253967 464.07539368 C111.73089231 464.07599427 102.24930187 464.06544468 92.7676689 464.04965001 C84.61800278 464.03655958 76.46835523 464.03121042 68.31867868 464.03184909 C63.45535391 464.03210364 58.59207975 464.02927605 53.72876549 464.01867104 C49.15280094 464.0089648 44.57693512 464.00892817 40.00096703 464.01618767 C38.32606868 464.01723038 36.6511641 464.01488929 34.9762764 464.00882721 C17.93330016 463.5840103 17.93330016 463.5840103 3.70204163 471.97163391 Z " fill="#000000" transform="translate(147.63389587402344,7.7393035888671875)"/>
<path d="M0 0 C1.87461914 -0.02416992 1.87461914 -0.02416992 3.78710938 -0.04882812 C13.22713321 -0.05384141 19.38753117 1.10855884 26.484375 7.58203125 C31.7422558 13.34747976 32.0625 17.35570382 32.0625 25.3125 C26.7825 25.3125 21.5025 25.3125 16.0625 25.3125 C15.0725 23.3325 14.0825 21.3525 13.0625 19.3125 C9.18369395 17.37309697 4.39135864 18.08408815 0.125 18.0625 C-0.89013672 18.041875 -1.90527344 18.02125 -2.95117188 18 C-3.92505859 17.99484375 -4.89894531 17.9896875 -5.90234375 17.984375 C-6.7955835 17.9750293 -7.68882324 17.96568359 -8.60913086 17.95605469 C-10.9841647 18.13673483 -10.9841647 18.13673483 -12.72094727 19.61425781 C-14.79765366 22.51322825 -14.42603707 24.8927405 -13.9375 28.3125 C-9.38758485 32.53044709 -3.38969934 31.76112671 2.4375 31.8125 C12.19704738 31.89919649 19.08350305 32.7546616 26.484375 39.60546875 C32.12488557 45.70671409 32.70254455 51.79727063 32.44921875 59.96484375 C31.63186323 67.04033548 28.50614331 71.75503118 23.0625 76.3125 C15.66606725 81.34547493 8.97625826 81.51629329 0.3125 81.5625 C-0.63882813 81.583125 -1.59015625 81.60375 -2.5703125 81.625 C-11.27569131 81.67270071 -19.12572136 80.04058658 -25.9375 74.3125 C-30.53117439 68.16270285 -31.9375 64.23735044 -31.9375 56.3125 C-26.3275 56.3125 -20.7175 56.3125 -14.9375 56.3125 C-14.2775 57.9625 -13.6175 59.6125 -12.9375 61.3125 C-9.35430135 64.27020262 -4.41397016 63.64272679 0 63.625 C0.79857422 63.64111328 1.59714844 63.65722656 2.41992188 63.67382812 C7.05620104 63.67766928 10.3959351 63.48338615 14.0625 60.3125 C14.74196389 55.69863379 14.74196389 55.69863379 12.83056641 51.61914062 C10.53004278 49.9190022 9.11800441 49.93001323 6.2734375 49.90625 C4.85998047 49.87337891 4.85998047 49.87337891 3.41796875 49.83984375 C2.43441406 49.83082031 1.45085937 49.82179687 0.4375 49.8125 C-9.3075081 49.72093617 -18.20488204 48.81492874 -25.9375 42.3125 C-31.94450537 34.27060121 -32.70058287 27.26575489 -31.9375 17.3125 C-30.28957403 10.72079612 -25.50886648 5.98048149 -19.9375 2.3125 C-13.31024656 -0.28571486 -7.02813682 -0.01806719 0 0 Z " fill="#000000" transform="translate(183.9375,39.6875)"/>
<path d="M0 0 C1.87461914 -0.02416992 1.87461914 -0.02416992 3.78710938 -0.04882812 C12.09576457 -0.05324058 18.21207697 0.47521759 24.75 6 C25.29011719 6.43699219 25.83023438 6.87398437 26.38671875 7.32421875 C31.7164482 13.64783714 32.66331083 19.80109828 32.59375 27.875 C32.59949036 29.36108765 32.59949036 29.36108765 32.60534668 30.87719727 C32.60805562 32.96143618 32.6007662 35.0457097 32.58398438 37.12988281 C32.56256067 40.30351212 32.58382141 43.47487784 32.609375 46.6484375 C32.60673154 48.68229662 32.6016062 50.71615434 32.59375 52.75 C32.60184692 53.68980713 32.60994385 54.62961426 32.61828613 55.59790039 C32.51211484 63.13029567 30.59858466 68.29661554 25.75 74.0625 C17.72307177 80.78271899 10.44605144 81.50845439 0.3125 81.5625 C-0.63882812 81.583125 -1.59015625 81.60375 -2.5703125 81.625 C-11.27569131 81.67270071 -19.12572136 80.04058658 -25.9375 74.3125 C-29.58013685 69.43590758 -32.03711595 65.05811514 -32.11450195 58.8762207 C-32.12733719 57.98131424 -32.14017242 57.08640778 -32.15339661 56.16438293 C-32.16078354 55.19876938 -32.16817047 54.23315582 -32.17578125 53.23828125 C-32.183853 52.24048141 -32.19192474 51.24268158 -32.20024109 50.21464539 C-32.21407609 48.10055272 -32.22480085 45.98643776 -32.23266602 43.87231445 C-32.2498416 40.6546737 -32.29372923 37.43807049 -32.33789062 34.22070312 C-32.34802123 32.16407004 -32.35653618 30.10742823 -32.36328125 28.05078125 C-32.38078934 27.09528885 -32.39829742 26.13979645 -32.41633606 25.15534973 C-32.39300448 17.89272225 -30.77991949 12.61523034 -26.0078125 7.0703125 C-25.36585938 6.53148437 -24.72390625 5.99265625 -24.0625 5.4375 C-23.42570312 4.88320313 -22.78890625 4.32890625 -22.1328125 3.7578125 C-15.35036769 -0.70749814 -7.794032 -0.02003607 0 0 Z M-13.5703125 19.14453125 C-17.13028918 24.78963714 -16.12350767 31.4999686 -16.12280273 37.93603516 C-16.12498526 40.17239524 -16.14314121 42.40825867 -16.16210938 44.64453125 C-16.1650444 46.07291499 -16.16702846 47.50130106 -16.16796875 48.9296875 C-16.17413208 50.87270752 -16.17413208 50.87270752 -16.18041992 52.85498047 C-15.94700842 56.17716506 -15.46041435 58.37409263 -13.9375 61.3125 C-9.67863287 65.00674459 -5.29247431 64.76573826 0.0625 64.6875 C0.8565625 64.69910156 1.650625 64.71070313 2.46875 64.72265625 C7.09112555 64.69954437 10.42438938 64.46828535 14.0625 61.3125 C17.07717478 55.45486822 16.3974115 49.00771183 16.37817383 42.59301758 C16.37501442 40.38507685 16.39849663 38.17847846 16.42382812 35.97070312 C16.4261016 34.55468918 16.42680439 33.13867166 16.42578125 31.72265625 C16.42876221 30.44527588 16.43174316 29.16789551 16.43481445 27.85180664 C16.030886 24.01197008 15.07959251 21.58478157 13.0625 18.3125 C9.19187878 16.37718939 4.44527058 17.04057596 0.1875 17 C-0.81925781 16.97099609 -1.82601563 16.94199219 -2.86328125 16.91210938 C-8.57026142 16.7579474 -8.57026142 16.7579474 -13.5703125 19.14453125 Z " fill="#000000" transform="translate(327.9375,39.6875)"/>
<path d="M0 0 C0.98608749 0.00424484 0.98608749 0.00424484 1.99209595 0.00857544 C4.07044483 0.01967803 6.14834616 0.04476264 8.2265625 0.0703125 C9.64452498 0.08035519 11.06249429 0.08947877 12.48046875 0.09765625 C15.93780679 0.1178746 19.39418985 0.157039 22.8515625 0.1953125 C22.8515625 5.8053125 22.8515625 11.4153125 22.8515625 17.1953125 C20.93730469 17.23269531 19.02304687 17.27007812 17.05078125 17.30859375 C14.54685495 17.37423976 12.04294959 17.44068756 9.5390625 17.5078125 C7.64510742 17.54165039 7.64510742 17.54165039 5.71289062 17.57617188 C4.50439453 17.61162109 3.29589844 17.64707031 2.05078125 17.68359375 C0.93533936 17.70977783 -0.18010254 17.73596191 -1.3293457 17.76293945 C-4.51125338 17.96639216 -4.51125338 17.96639216 -7.1484375 21.1953125 C-7.8084375 24.8253125 -8.4684375 28.4553125 -9.1484375 32.1953125 C1.4115625 32.1953125 11.9715625 32.1953125 22.8515625 32.1953125 C22.8515625 37.8053125 22.8515625 43.4153125 22.8515625 49.1953125 C12.2915625 49.1953125 1.7315625 49.1953125 -9.1484375 49.1953125 C-8.40181409 59.41830943 -8.40181409 59.41830943 -4.89575195 62.35083008 C-1.88476671 63.27636087 0.65814393 63.62625049 3.80859375 63.70703125 C5.47631836 63.76020508 5.47631836 63.76020508 7.17773438 63.81445312 C8.32822266 63.83701172 9.47871094 63.85957031 10.6640625 63.8828125 C12.41879883 63.93405273 12.41879883 63.93405273 14.20898438 63.98632812 C17.08951038 64.06862887 19.97052078 64.13365183 22.8515625 64.1953125 C22.8515625 69.8053125 22.8515625 75.4153125 22.8515625 81.1953125 C18.53867746 81.27668769 14.22734781 81.33600165 9.9140625 81.3828125 C8.70169922 81.40794922 7.48933594 81.43308594 6.24023438 81.45898438 C-3.32369654 81.53673991 -11.60702947 80.53695107 -19.1484375 74.1953125 C-22.79107435 69.31872008 -25.24805345 64.94092764 -25.32543945 58.7590332 C-25.33827469 57.86412674 -25.35110992 56.96922028 -25.36433411 56.04719543 C-25.37172104 55.08158188 -25.37910797 54.11596832 -25.38671875 53.12109375 C-25.3947905 52.12329391 -25.40286224 51.12549408 -25.41117859 50.09745789 C-25.42501359 47.98336522 -25.43573835 45.86925026 -25.44360352 43.75512695 C-25.4607791 40.5374862 -25.50466673 37.32088299 -25.54882812 34.10351562 C-25.55895873 32.04688254 -25.56747368 29.99024073 -25.57421875 27.93359375 C-25.59172684 26.97810135 -25.60923492 26.02260895 -25.62727356 25.03816223 C-25.60394198 17.77553475 -23.99085699 12.49804284 -19.21875 6.953125 C-18.57679688 6.41429687 -17.93484375 5.87546875 -17.2734375 5.3203125 C-16.63664063 4.76601563 -15.99984375 4.21171875 -15.34375 3.640625 C-10.46114987 0.42610178 -5.74242795 -0.04908058 0 0 Z " fill="#000000" transform="translate(257.1484375,39.8046875)"/>
<path d="M0 0 C8.34468007 4.97590182 13.53387008 11.86345977 16.109375 21.2578125 C17.10789012 32.35758522 16.45884702 41.9922991 9.359375 51.0703125 C3.68970122 57.1408723 -3.36319277 60.85433149 -11.66015625 61.59375 C-19.4412515 61.76746925 -26.16911331 61.58646603 -32.890625 57.2578125 C-33.59703125 56.82210937 -34.3034375 56.38640625 -35.03125 55.9375 C-41.93709584 51.25687115 -45.68778524 45.25759899 -47.890625 37.2578125 C-48.88914012 26.15803978 -48.24009702 16.5233259 -41.140625 7.4453125 C-30.84272373 -3.5807232 -13.59449082 -6.52353083 0 0 Z M-29.265625 20.8828125 C-31.46970393 25.46051489 -31.6877889 29.26333661 -30.890625 34.2578125 C-28.56093569 39.09639798 -25.72921048 41.92812319 -20.890625 44.2578125 C-15.89614911 45.0549764 -12.09332739 44.83689143 -7.515625 42.6328125 C-3.93154787 39.39007605 -1.29527259 36.79305354 -0.5078125 31.859375 C-0.25178581 26.17558256 -0.95435568 22.60842595 -4.890625 18.2578125 C-9.24123845 14.32154318 -12.80839506 13.61897331 -18.4921875 13.875 C-23.42586604 14.66246009 -26.02288855 17.29873537 -29.265625 20.8828125 Z " fill="#000000" transform="translate(87.890625,234.7421875)"/>
<path d="M0 0 C15.84 0 31.68 0 48 0 C48 5.28 48 10.56 48 16 C32.16 16 16.32 16 0 16 C0 10.72 0 5.44 0 0 Z " fill="#000000" transform="translate(424,280)"/>
<path d="M0 0 C15.84 0 31.68 0 48 0 C48 5.28 48 10.56 48 16 C32.16 16 16.32 16 0 16 C0 10.72 0 5.44 0 0 Z " fill="#000000" transform="translate(424,248)"/>
<path d="M0 0 C15.84 0 31.68 0 48 0 C48 5.28 48 10.56 48 16 C32.16 16 16.32 16 0 16 C0 10.72 0 5.44 0 0 Z " fill="#000000" transform="translate(424,216)"/>
<path d="M0 0 C2.5 1.5 2.5 1.5 4 4 C4.791013 8.02098277 4.62153384 10.96411027 2.5 14.5 C-1.03588973 16.62153384 -3.97901723 16.791013 -8 16 C-10.5 14.5 -10.5 14.5 -12 12 C-12.791013 7.97901723 -12.62153384 5.03588973 -10.5 1.5 C-6.96411027 -0.62153384 -4.02098277 -0.791013 0 0 Z " fill="#000000" transform="translate(292,376)"/>
<path d="M0 0 C2.5 1.5 2.5 1.5 4 4 C4.791013 8.02098277 4.62153384 10.96411027 2.5 14.5 C-1.03588973 16.62153384 -3.97901723 16.791013 -8 16 C-10.5 14.5 -10.5 14.5 -12 12 C-12.791013 7.97901723 -12.62153384 5.03588973 -10.5 1.5 C-6.96411027 -0.62153384 -4.02098277 -0.791013 0 0 Z " fill="#000000" transform="translate(260,376)"/>
<path d="M0 0 C2.5 1.5 2.5 1.5 4 4 C4.791013 8.02098277 4.62153384 10.96411027 2.5 14.5 C-1.03588973 16.62153384 -3.97901723 16.791013 -8 16 C-10.5 14.5 -10.5 14.5 -12 12 C-12.791013 7.97901723 -12.62153384 5.03588973 -10.5 1.5 C-6.96411027 -0.62153384 -4.02098277 -0.791013 0 0 Z " fill="#000000" transform="translate(228,376)"/>
</svg>
