<svg id="Layer_1" enable-background="new 0 0 66 66" height="512" viewBox="0 0 66 66" width="512" xmlns="http://www.w3.org/2000/svg" xmlns:xlink="http://www.w3.org/1999/xlink"><linearGradient id="SVGID_1_" gradientTransform="matrix(1 0 0 -1 813.48 929.047)" gradientUnits="userSpaceOnUse" x1="-790.697" x2="-790.697" y1="919.954" y2="890.129"><stop offset=".00000046" stop-color="#1aceb3"/><stop offset=".4458" stop-color="#1ed2b7"/><stop offset=".9298" stop-color="#2bdfc2"/><stop offset="1" stop-color="#2de2c4"/></linearGradient><linearGradient id="lg1"><stop offset=".00000035" stop-color="#6542b2"/><stop offset=".2888" stop-color="#6946b6"/><stop offset=".6028" stop-color="#7653c1"/><stop offset=".9276" stop-color="#8a69d3"/><stop offset="1" stop-color="#906fd8"/></linearGradient><linearGradient id="SVGID_2_" gradientUnits="userSpaceOnUse" x1="10.422" x2="38.772" xlink:href="#lg1" y1="36.885" y2="36.885"/><linearGradient id="SVGID_3_" gradientUnits="userSpaceOnUse" x1="41.099" x2="47.001" y1="31.532" y2="31.532"><stop offset=".0036" stop-color="#6ac163"/><stop offset=".3896" stop-color="#6ec567"/><stop offset=".8086" stop-color="#7ad074"/><stop offset="1" stop-color="#82d77d"/></linearGradient><linearGradient id="lg2"><stop offset=".00000016" stop-color="#ffe05f"/><stop offset=".175" stop-color="#ffd24e"/><stop offset=".4638" stop-color="#ffc038"/><stop offset=".7431" stop-color="#ffb52b"/><stop offset="1" stop-color="#ffb127"/></linearGradient><linearGradient id="SVGID_4_" gradientUnits="userSpaceOnUse" x1="41.099" x2="47.001" xlink:href="#lg2" y1="38.459" y2="38.459"/><linearGradient id="SVGID_5_" gradientUnits="userSpaceOnUse" x1="41.099" x2="47.001" xlink:href="#lg1" y1="45.387" y2="45.387"/><linearGradient id="SVGID_6_" gradientUnits="userSpaceOnUse" x1="41.099" x2="47.001" y1="52.314" y2="52.314"><stop offset=".00000024" stop-color="#15a0ff"/><stop offset=".2298" stop-color="#19a4ff"/><stop offset=".4796" stop-color="#26b0ff"/><stop offset=".7389" stop-color="#3cc4ff"/><stop offset="1" stop-color="#5ae0ff"/></linearGradient><linearGradient id="SVGID_7_" gradientTransform="matrix(-1 0 0 1 -272.53 0)" gradientUnits="userSpaceOnUse" x1="-329.115" x2="-314.629" xlink:href="#lg2" y1="11.992" y2="11.992"/><g><g><g><g><g><g><g><g><g><path d="m36.336 38.3253v-26.5133h-25.1062l-1.9996-2.7195v26.5133c0 1.8308 1.4812 3.312 3.306 3.312h23.2073c.3258 0 .5925-.2666.5925-.5925z" fill="url(#SVGID_1_)"/></g><g><g><path d="m35.7435 11.812h-23.2073c-1.4931 0-2.7136-1.2205-2.7136-2.7195 0-1.493 1.2205-2.7135 2.7136-2.7135h23.2073c-.5301 1.726-.5561 3.5329 0 5.433z" fill="#f9f9f9"/><g opacity=".4"><path d="m35.7435 6.3789h-4.1245c-.53 1.7261-.5561 3.5329 0 5.4331h4.1245c-.5562-1.9002-.5301-3.707 0-5.4331z" fill="#efefef"/></g><path d="m35.7435 12.4045c.3272 0 .5925-.2653.5925-.5925 0-.3272-.2653-.5925-.5925-.5925h-23.2073c-1.311 0-2.3528-1.2034-2.0763-2.5691.2011-.9928 1.122-1.679 2.135-1.679h23.1486c.3272 0 .5925-.2652.5925-.5924 0-.3273-.2653-.5925-.5925-.5925h-23.2073c-.9124 0-1.7419.3732-2.3344.9657-.6043.6044-.9716 1.4279-.9716 2.3403 0 1.8308 1.4812 3.312 3.306 3.312z" fill="#2de2c4"/></g></g></g></g></g></g></g></g><g fill="#efefef"><path d="m33.2548 7.7978c-3.1714.1153-6.4273.174-9.6692.174-3.2559 0-6.4978-.0587-9.6762-.174 6.3498-.2306 12.9956-.2306 19.3454 0z"/><path d="m33.2548 8.6606c-3.1714.1153-6.4273.174-9.6692.174-3.2559 0-6.4978-.0587-9.6762-.174 6.3498-.2306 12.9956-.2306 19.3454 0z"/><path d="m33.2548 9.5234c-3.1714.1153-6.4273.174-9.6692.174-3.2559 0-6.4978-.0587-9.6762-.174 6.3498-.2306 12.9956-.2306 19.3454 0z"/><path d="m33.2548 10.3862c-3.1714.1153-6.4273.174-9.6692.174-3.2559 0-6.4978-.0587-9.6762-.174 6.3498-.2306 12.9956-.2306 19.3454 0z"/></g></g><g><g><g><g><path d="m58.5817 22.8644h-51.1662c-1.3231 0-2.3959 1.0727-2.3959 2.3959v32.6072h55.958v-32.6072c0-1.3232-1.0726-2.3959-2.3959-2.3959z" fill="#627e87"/><path d="m64.4951 57.8708h-62.9902c-.3168 0-.5486.2903-.4961.6027.2863 1.7051 1.7674 3.002 3.5546 3.002h56.8635c1.787 0 3.2759-1.2967 3.5642-3.0015.0528-.3125-.179-.6032-.496-.6032z" fill="#efefef"/><g><path d="m58.5817 22.8644h-51.1662c-.0373 0-.0719.0093-.1088.011l53.6709 33.6786v-31.2937c0-1.3232-1.0725-2.3959-2.3959-2.3959z" fill="#476870"/></g><g><path d="m7.287 25.129h51.416v30.469h-51.416z" fill="#fff"/></g><g><path d="m7.287 25.129h51.416v2.811h-51.416z" fill="#e0e0e0"/></g><g><g><g><path d="m10.422 29.075h28.35v15.619h-28.35z" fill="url(#SVGID_2_)"/></g><path d="m21.7831 33.7102v6.3486l5.627-3.1743z" fill="#fff"/></g><g><g><g><g><path d="m41.099 29.352h5.902v4.361h-5.902z" fill="url(#SVGID_3_)"/></g></g><path d="m42.9277 30.266v2.5322l2.2444-1.2661z" fill="#fff"/></g><g fill="#e0e0e0"><path d="m48.464 29.352h7.105v.915h-7.105z"/><path d="m48.464 31.015h7.105v.518h-7.105z"/><path d="m48.464 32.22h7.105v.518h-7.105z"/></g></g><g><g><g><g><path d="m41.099 36.279h5.902v4.361h-5.902z" fill="url(#SVGID_4_)"/></g></g><path d="m42.9277 37.1932v2.5322l2.2444-1.2661z" fill="#fff"/></g><g fill="#e0e0e0"><path d="m48.464 36.279h7.105v.915h-7.105z"/><path d="m48.464 37.942h7.105v.518h-7.105z"/><path d="m48.464 39.376h7.105v.518h-7.105z"/></g></g><g><g><g><path d="m41.099 43.206h5.902v4.361h-5.902z" fill="url(#SVGID_5_)"/></g><path d="m42.9277 44.1203v2.5323l2.2444-1.2662z" fill="#fff"/></g><g fill="#e0e0e0"><path d="m48.464 43.206h7.105v.914h-7.105z"/><path d="m48.464 44.869h7.105v.518h-7.105z"/><path d="m48.464 46.075h7.105v.518h-7.105z"/></g></g><g><g><g><g><path d="m41.099 50.133h5.902v4.361h-5.902z" fill="url(#SVGID_6_)"/></g></g><path d="m42.9277 51.0475v2.5322l2.2444-1.2661z" fill="#fff"/></g><g fill="#e0e0e0"><path d="m48.464 50.133h7.105v.914h-7.105z"/><path d="m48.464 51.796h7.105v.518h-7.105z"/><path d="m48.464 53.002h7.105v.518h-7.105z"/><path d="m10.422 46.592h28.35v1.887h-28.35z"/><path d="m10.422 50.024h28.35v1.068h-28.35z"/><path d="m10.422 52.512h28.35v1.068h-28.35z"/></g></g></g><path d="m27.411 57.868h11.175v1.089h-11.175z" fill="#e0e0e0"/></g></g></g></g><g><g><g><g><g><path d="m49.8599 14.2512c0 3.067 2.4869 5.5639 5.5637 5.5639.7373 0 1.4451-.1475 2.084-.4129l3.1259.747-.6487-2.7228c.6291-.9044.9928-1.9956.9928-3.1752 0-3.0768-2.487-5.5637-5.554-5.5637-3.0768 0-5.5637 2.4869-5.5637 5.5637z" fill="#31bfff"/></g></g></g><g><g><g><path d="m56.5859 11.7743c0 3.9964-3.2406 7.2499-7.2498 7.2499-.9606 0-1.8829-.1922-2.7154-.538l-4.0733.9735.8454-3.548c-.8198-1.1785-1.2937-2.6003-1.2937-4.1374 0-4.0092 3.2407-7.2498 7.237-7.2498 4.0092 0 7.2498 3.2406 7.2498 7.2498z" fill="url(#SVGID_7_)"/></g></g><g><g><path d="m56.5859 11.7743c0 3.9964-3.2406 7.2499-7.2498 7.2499-.9606 0-1.8829-.1922-2.7154-.538l-4.0733.9735.8454-3.548c-.8198-1.1785-1.2937-2.6003-1.2937-4.1374 0-.6916.0897-1.3577.2818-1.9853-.0128.0512-.0128.0896-.0128.1409 0 3.4712 2.8051 6.2892 6.2764 6.2892 3.4711 0 6.2891-2.818 6.2891-6.2892 0-1.6267-.6148-3.0998-1.6396-4.2141 1.9855 1.2808 3.2919 3.5096 3.2919 6.0585z" fill="#ffb127"/></g></g></g></g><g fill="#fff"><circle cx="52.305" cy="11.523" r=".963"/><circle cx="49.101" cy="11.523" r=".963"/><circle cx="45.898" cy="11.523" r=".963"/></g></g></g></svg>