<svg id="Layer_1" enable-background="new 0 0 512 512" viewBox="0 0 512 512" xmlns="http://www.w3.org/2000/svg"><path d="m459.103 51.424h-239.585c-4.415 0-7.994 3.579-7.994 7.994s3.579 7.994 7.994 7.994h239.584c15.943 0 28.913 12.97 28.913 28.913v253.871c0 15.928-12.97 28.885-28.913 28.885h-406.205c-15.943 0-28.913-12.957-28.913-28.885v-165.232c0-4.415-3.579-7.994-7.994-7.994s-7.994 3.579-7.994 7.994v165.231c0 24.743 20.142 44.873 44.9 44.873h119.679v42.66h-48.161c-21.773 0-39.486 14.866-39.486 33.138v25.144c0 4.415 3.579 7.994 7.994 7.994h326.154c4.415 0 7.994-3.579 7.994-7.994v-25.144c0-18.271-17.713-33.138-39.486-33.138h-48.161v-42.66h119.679c24.758 0 44.9-20.13 44.9-44.873v-253.871c.001-24.758-20.141-44.9-44.899-44.9zm-48.02 419.442v17.149h-310.166v-17.149c0-9.296 10.761-17.149 23.499-17.149h263.169c12.737 0 23.498 7.853 23.498 17.149zm-87.647-33.137h-134.872v-42.66h134.872zm-276.576-219.458c-4.415 0-7.994 3.579-7.994 7.994v98.674c0 4.415 3.579 7.994 7.994 7.994h418.28c4.415 0 7.994-3.579 7.994-7.994v-229.55c0-7.221-5.875-13.096-13.096-13.096h-230.429c-4.415 0-7.994 3.579-7.994 7.994s3.579 7.994 7.994 7.994h227.537v218.664h-22.677v-159.619c0-4.415-3.579-7.994-7.994-7.994h-37.219c-4.415 0-7.994 3.579-7.994 7.994v159.618h-15.902v-95.3c0-4.415-3.579-7.994-7.994-7.994h-37.219c-4.415 0-7.994 3.579-7.994 7.994v95.3h-15.902v-110.805c0-4.415-3.579-7.994-7.994-7.994h-37.217c-4.415 0-7.994 3.579-7.994 7.994v110.806h-15.903v-64.715c0-4.415-3.579-7.994-7.994-7.994h-37.19c-4.415 0-7.994 3.579-7.994 7.994v64.714h-119.111v-90.68c0-4.414-3.58-7.993-7.994-7.993zm350.39-52.951h21.231v151.625h-21.231zm-69.108 64.318h21.231v87.307h-21.231zm-69.109-15.506h21.231v102.812h-21.231zm-69.08 46.092h21.203v56.721h-21.203zm-144.923-164.554c-3.082 1.19-5.115 4.153-5.115 7.458v17.292c0 3.304 2.032 6.267 5.115 7.457l6.812 2.63c1.119 3.592 2.564 7.07 4.322 10.403l-2.972 6.673c-1.347 3.023-.69 6.564 1.65 8.904l12.217 12.217c2.34 2.34 5.881 2.996 8.904 1.65l6.688-2.979c3.326 1.745 6.798 3.187 10.382 4.312l2.636 6.829c1.19 3.082 4.153 5.115 7.458 5.115h17.292c3.304 0 6.267-2.033 7.457-5.115l2.635-6.825c3.614-1.131 7.088-2.572 10.395-4.311l6.677 2.973c3.024 1.347 6.564.691 8.904-1.65l12.217-12.217c2.34-2.34 2.997-5.881 1.65-8.904l-2.974-6.677c1.739-3.307 3.18-6.781 4.311-10.395l6.825-2.635c3.082-1.19 5.115-4.153 5.115-7.457v-17.292c0-3.304-2.033-6.268-5.115-7.458l-6.825-2.635c-1.131-3.613-2.572-7.088-4.311-10.394l2.974-6.677c1.347-3.023.69-6.564-1.65-8.904l-12.217-12.217c-2.34-2.34-5.881-2.997-8.904-1.65l-6.673 2.972c-3.333-1.758-6.811-3.203-10.403-4.322l-2.63-6.812c-1.19-3.083-4.153-5.115-7.457-5.115h-17.292c-3.304 0-6.268 2.033-7.458 5.115l-2.629 6.812c-3.592 1.119-7.071 2.564-10.403 4.322l-6.673-2.972c-3.023-1.346-6.563-.691-8.904 1.65l-12.219 12.219c-2.34 2.34-2.997 5.881-1.65 8.904l2.972 6.673c-1.758 3.333-3.203 6.811-4.322 10.403zm10.872 12.94 5.458-2.107c2.461-.95 4.294-3.053 4.901-5.621 1.134-4.804 3.034-9.373 5.645-13.582 1.397-2.25 1.588-5.047.51-7.467l-2.385-5.355 4.447-4.447 5.355 2.385c2.42 1.078 5.217.887 7.467-.51 4.208-2.611 8.778-4.511 13.582-5.645 2.567-.606 4.67-2.44 5.621-4.901l2.107-5.458h6.326l2.107 5.458c.95 2.461 3.053 4.294 5.62 4.901 4.804 1.134 9.373 3.034 13.582 5.645 2.25 1.396 5.047 1.588 7.467.51l5.355-2.385 4.447 4.447-2.385 5.355c-1.078 2.42-.887 5.216.51 7.467 2.572 4.145 4.474 8.727 5.654 13.619.615 2.551 2.444 4.638 4.892 5.583l5.458 2.107v6.326l-5.458 2.107c-2.448.945-4.277 3.032-4.892 5.583-1.18 4.892-3.082 9.474-5.654 13.618-1.397 2.25-1.588 5.047-.51 7.467l2.385 5.355-4.447 4.447-5.355-2.385c-2.42-1.079-5.217-.887-7.467.51-4.144 2.572-8.725 4.474-13.618 5.654-2.551.615-4.638 2.444-5.583 4.892l-2.107 5.458h-6.326l-2.107-5.458c-.945-2.448-3.032-4.277-5.583-4.892-4.828-1.164-9.419-3.072-13.647-5.671-2.246-1.38-5.029-1.565-7.438-.493l-5.355 2.385-4.447-4.447 2.385-5.355c1.078-2.42.887-5.216-.51-7.467-2.611-4.208-4.511-8.778-5.645-13.582-.606-2.567-2.44-4.67-4.901-5.62l-5.458-2.107v-6.324zm55.871 41.318c21.039 0 38.154-17.116 38.154-38.154s-17.116-38.154-38.154-38.154-38.154 17.116-38.154 38.154 17.116 38.154 38.154 38.154zm0-60.322c12.223 0 22.167 9.944 22.167 22.167s-9.944 22.167-22.167 22.167-22.167-9.944-22.167-22.167 9.945-22.167 22.167-22.167zm75.895-21.966c-2.224-3.813-.936-8.708 2.878-10.932 3.812-2.222 8.708-.937 10.932 2.878 9.205 15.784 14.071 33.83 14.071 52.188 0 57.223-46.554 103.776-103.776 103.776-18.224 0-36.081-4.834-51.735-13.834-.684 2.658-2.712 4.895-5.542 5.703-.733.209-1.472.309-2.198.309-3.479 0-6.68-2.289-7.683-5.801l-4.847-16.979c-.674-2.362-.226-4.902 1.217-6.89s3.72-3.202 6.174-3.292l17.66-.652c4.409-.156 8.12 3.282 8.283 7.693.106 2.861-1.311 5.419-3.52 6.914 12.861 7.049 27.378 10.843 42.19 10.843 48.407 0 87.789-39.382 87.789-87.789.001-15.532-4.112-30.793-11.893-44.135zm-164.925 97.458c-9.647-16.069-14.746-34.508-14.746-53.324 0-57.223 46.554-103.776 103.776-103.776 18.265 0 36.075 4.838 51.708 13.827.686-2.655 2.713-4.889 5.54-5.697 4.245-1.213 8.669 1.247 9.881 5.492l4.847 16.98c.675 2.364.225 4.907-1.221 6.896s-3.727 3.201-6.183 3.288l-17.66.624c-.096.003-.192.005-.287.005-4.285 0-7.832-3.396-7.984-7.711-.101-2.859 1.317-5.413 3.525-6.905-12.839-7.035-27.325-10.811-42.166-10.811-48.407 0-87.789 39.382-87.789 87.789 0 15.918 4.311 31.511 12.466 45.095 2.272 3.785 1.046 8.696-2.739 10.968-1.288.773-2.707 1.141-4.107 1.142-2.715-.002-5.362-1.385-6.861-3.882zm172.901 42.245 69.109-53.802c2.092-1.628 4.854-2.112 7.375-1.297l64.431 20.878 50.285-50.704-.777.068c-4.398.39-8.273-2.872-8.656-7.271-.383-4.398 2.872-8.274 7.271-8.656l22.479-1.956c2.386-.209 4.739.665 6.413 2.379 1.673 1.714 2.49 4.087 2.225 6.468l-2.495 22.422c-.455 4.087-3.917 7.11-7.935 7.111-.295 0-.593-.017-.894-.05-4.259-.474-7.352-4.213-7.084-8.445l-52.942 53.383c-2.124 2.141-5.27 2.907-8.14 1.976l-65.077-21.088-65.765 51.199c-1.459 1.136-3.189 1.687-4.905 1.687-2.381 0-4.737-1.059-6.313-3.083-2.714-3.485-2.089-8.507 1.395-11.219z"/></svg>