<svg id="Layer_1" enable-background="new 0 0 68 68" viewBox="0 0 68 68" xmlns="http://www.w3.org/2000/svg"><g><g><path d="m28.26 50.432h11.006v11.009h-11.006z" fill="#51504f"/></g><g><path d="m39.2654572 56.9979439v-6.5658798h-11.0056782v2.7021179z" fill="#3a3a3a"/></g><g><path d="m64.6374893 11.3607912v37.1135168c0 1.674633-1.3603973 3.0350266-3.0350266 3.0350266h-51.2480058c-1.6746302 0-3.0605741-1.3603935-3.0605741-3.0350266v-37.1135168c0-1.7001762 1.3859439-3.0605736 3.0605741-3.0605736h51.2480049c1.6746302 0 3.0350275 1.3603974 3.0350275 3.0605736z" fill="#3a3a3a"/></g><g><path d="m61.0634117 11.3607912v37.1135168c0 1.674633-1.3603973 3.0350266-3.0350266 3.0350266h-51.2480044c-1.6746292 0-3.0605736-1.3603935-3.0605736-3.0350266v-37.1135168c0-1.7001762 1.3859444-3.0605736 3.0605736-3.0605736h51.2480049c1.6746288 0 3.0350261 1.3603974 3.0350261 3.0605736z" fill="#51504f"/></g><g><path d="m6.7803807 48.8932877c-.2363129 0-.4445238-.1960754-.4445238-.4189796v-37.1135169c0-.2407837.2031016-.4445238.4445238-.4445238h51.2480049c.2350349 0 .4189758.1954374.4189758.4445238v37.1135168c0 .231205-.1877708.4189796-.4189758.4189796h-51.2480049z" fill="#fff"/></g><g><path d="m50.1725502 13.9164286c.8791504-.5126953 1.7583008-.6279297 2.6374512-.6499023.4394531.0112305.8791504.0390625 1.3186035.1425781.4396973.0952148.8791504.2363281 1.3188477.5073242-.4396973.2705078-.8791504.4116211-1.3188477.5068359-.4394531.1035156-.8791504.1313477-1.3186035.1425781-.8791504-.0219726-1.7583008-.137207-2.6374512-.649414z" fill="#d1dafe"/></g><g><path d="m32.3915443 13.9164286c2.484375-.5126953 4.96875-.6279297 7.453125-.6499023 1.2421875.0112305 2.4841309.0390625 3.7263184.1425781 1.2421875.0952148 2.484375.2363281 3.7265625.5073242-1.2421875.2705078-2.484375.4116211-3.7265625.5068359-1.2421875.1035156-2.4841309.1313477-3.7263184.1425781-2.484375-.0219726-4.96875-.137207-7.453125-.649414z" fill="#d1dafe"/></g><g><path d="m41.4225502 17.6957264c2.3374023-.5126953 4.6750488-.6274414 7.0124512-.6494141 1.1687012.0112305 2.3374023.0390625 3.5063477.1420898 1.1687012.0952148 2.3374023.2368164 3.5061035.5073242-1.1687012.2705078-2.3374023.4121094-3.5061035.5073242-1.1689453.1035156-2.3376465.1308594-3.5063477.1425781-2.3374024-.0219725-4.6750489-.1372069-7.0124512-.6499022z" fill="#d1dafe"/></g><g><path d="m32.3915443 17.6957264c.9995117-.5126953 1.9987793-.6274414 2.9980469-.6494141.4997559.0112305.9992676.0390625 1.4990234.1420898.4997559.0952148.9992676.2368164 1.4990234.5073242-.4997559.2705078-.9992676.4121094-1.4990234.5073242-.4997559.1035156-.9992676.1308594-1.4990234.1425781-.9992676-.0219725-1.9985351-.1372069-2.9980469-.6499022z" fill="#d1dafe"/></g><g><path d="m52.2374916 21.4755116c.5349121-.5126953 1.0700684-.6279297 1.6049805-.6499023.2675781.0117188.5349121.0390625.8024902.1425781.2675781.0952148.5349121.2368164.8024902.5073242-.2675781.2705078-.5349121.4121094-.8024902.5073242-.2675781.1030273-.5349121.1308594-.8024902.1420898-.5349121-.0219726-1.0700684-.1367187-1.6049805-.649414z" fill="#d1dafe"/></g><g><path d="m32.3915443 21.4755116c2.7727051-.5126953 5.5454102-.6279297 8.3181152-.6499023 1.3862305.0117188 2.7724609.0390625 4.1589355.1425781 1.3862305.0952148 2.7727051.2368164 4.1589355.5073242-1.3862305.2705078-2.7727051.4121094-4.1589355.5073242-1.3864746.1030273-2.7727051.1308594-4.1589355.1420898-2.772705-.0219726-5.5454101-.1367187-8.3181152-.649414z" fill="#d1dafe"/></g><g><path d="m32.3915443 25.2552967c2.255127-.5126953 4.510498-.6279297 6.765625-.6499023 1.1274414.0112305 2.255127.0390625 3.3825684.1425781 1.1276855.0952148 2.255127.2363281 3.3828125.5073242-1.1276855.2705078-2.255127.4116211-3.3828125.5068359-1.1274414.1035156-2.255127.1313477-3.3825684.1425781-2.2551269-.0219726-4.510498-.137207-6.765625-.649414z" fill="#d1dafe"/></g><g><path d="m46.0778923 64.003273c.5031052 0 .6806221-.6554527.2529869-.9204826-3.105423-1.9246101-7.9909096-3.1670952-13.4947472-3.1670952s-10.3893204 1.242485-13.4947433 3.1670952c-.4276352.2650299-.2501183.9204826.252985.9204826z" fill="#3a3a3a"/></g><g><path d="m42.6076088 31.4252186v13.7998028c0 .3701172-.3000488.6699219-.6699219.6699219h-2.8901367c-.3598633 0-.6599121-.2998047-.6599121-.6699219v-13.7998028c0-.3701172.3000488-.6699219.6599121-.6699219h2.8901367c.3698731 0 .6699219.2998047.6699219.6699219z" fill="#aec46e"/></g><g><path d="m49.0275307 38.3451385v6.8798828c0 .3701172-.3000488.6699219-.6699219.6699219h-2.8901367c-.3598633 0-.6599121-.2998047-.6599121-.6699219v-6.8798828c0-.3701172.3000488-.6699219.6599121-.6699219h2.8901367c.369873.0000001.6699219.2998048.6699219.6699219z" fill="#fa990e"/></g><g><path d="m55.4474525 28.0052967v17.2197247c0 .3701172-.2998047.6699219-.6699219.6699219h-2.8898926c-.3601074 0-.6601563-.2998047-.6601563-.6699219v-17.2197247c0-.3603516.3000488-.6601563.6601563-.6601563h2.8898926c.3701173.0000001.6699219.2998047.6699219.6601563z" fill="#4269c4"/></g><g><path d="m36.1876869 35.0951385v10.1298828c0 .3701172-.3000488.6699219-.670166.6699219h-2.8898926c-.3601074 0-.6601563-.2998047-.6601563-.6699219v-10.1298828c0-.3701172.3000488-.6699219.6601563-.6699219h2.8898926c.3701172.0000001.670166.2998048.670166.6699219z" fill="#b53016"/></g><g><g><path d="m28.5675697 36.2753143c0-2.6547852-1.074707-5.057127-2.8144531-6.7954082l-2.6030273 2.6030254c1.0734863 1.0722656 1.7375488 2.5537109 1.7375488 4.1923828 0 2.0703125-1.0612793 3.8916016-2.6679688 4.9545898l2.0270996 3.0712891c2.6037598-1.7216797 4.3208008-4.6728515 4.3208008-8.0258789z" fill="#aec46e"/></g><g><path d="m18.9474525 42.2152557c-3.2700195 0-5.9299316-2.6601563-5.9299316-5.9399414 0-1.0473633.2734375-2.0292969.7492676-2.8823242l-3.2148438-1.7900372c-.7712402 1.3837872-1.2143555 2.9750957-1.2143555 4.6723614 0 5.3100586 4.3000488 9.6196289 9.6098633 9.6196289 1.9604492 0 3.7802734-.5888672 5.2993164-1.59375l-2.0270996-3.0712891c-.9387207.6215821-2.0625.9853516-3.2722168.9853516z" fill="#4269c4"/></g><g><path d="m18.9474525 30.3451405h.005127v-3.6796875c-.001709 0-.003418 0-.005127 0-3.6125488 0-6.7539063 1.9931641-8.3955078 4.9375l3.2148438 1.7900372c1.013916-1.8183576 2.954834-3.0478497 5.180664-3.0478497z" fill="#b53016"/></g><g><path d="m23.1500893 32.0829315 2.6030273-2.6030254c-1.7387695-1.7382813-4.1420898-2.8129883-6.8005371-2.8144531v3.6796875c1.6394043.0014648 3.123291.665039 4.1975098 1.737791z" fill="#fa990e"/></g></g><g><g><path d="m10.4982338 20.5652332c-.0913086-.0913086-.137207-.2038574-.137207-.3376465v-6.4047861c0-.1335449.0458984-.2480469.137207-.3430176s.2041016-.142334.3378906-.142334h4.230957c.1264648 0 .2338867.0439453.3217773.1318359.0878906.0881348.1318359.1953125.1318359.3217773 0 .126709-.0439453.2321777-.1318359.3166504s-.1953125.126709-.3217773.126709h-3.7456054v2.3317881h3.3657227c.1264648 0 .2338867.0439453.3217773.1318359.0878906.0881348.1318359.1953125.1318359.3220215 0 .1264648-.0439453.2319336-.1318359.3164063s-.1953125.126709-.3217773.126709h-3.3657227v2.3422852h3.7456055c.1264648 0 .2338867.0441895.3217773.1320801s.1318359.1950684.1318359.3217773c0 .1264648-.0439453.2321777-.1318359.3164063-.0878906.0844727-.1953125.126709-.3217773.126709h-4.230957c-.1337891 0-.2465821-.0456543-.3378907-.1372071z" fill="#4269c4"/></g><g><path d="m17.2301674 20.6179676c-.0913086-.0913086-.137207-.2038574-.137207-.3376465v-6.4575205c0-.1335449.0458984-.2480469.137207-.3430176s.2041016-.142334.3378906-.142334h2.4584961c.956543 0 1.6738281.1970215 2.1523438.5908203.4780273.394043.7172852.9111328.7172852 1.5512695 0 .421875-.1176758.8071299-.3535156 1.1552744-.2353516.3481445-.5786133.5998535-1.0283203.7543945.5063477.1337891.8525391.4484863 1.0390625.9443359.1865234.4960938.2797852.9831543.2797852 1.4614258v.4853516c0 .1337891-.0458984.2463379-.137207.3376465-.0917969.0913086-.2041016.137207-.3378906.137207-.1474609 0-.265625-.0439453-.3535156-.1318359s-.1318359-.2021484-.1318359-.3430176v-.3164063c0-.3518066-.0317383-.677002-.0947266-.9760742-.0634766-.2988281-.2148438-.5661621-.4536133-.802002-.2392578-.2355957-.6015625-.3535156-1.0869141-.3535156h-2.184082v2.447998c0 .1337891-.0478516.2463379-.1425781.3376465-.0952148.0913086-.2094727.137207-.3427734.137207-.1337893.0000002-.2465823-.0458982-.3378909-.1372068zm2.7329101-3.6928711c.6049805 0 1.0849609-.1196289 1.4404297-.3588867.3549805-.2390137.5327148-.5766611.5327148-1.0129404 0-.4221191-.152832-.7456055-.4589844-.9707031s-.828125-.3376465-1.5668945-.3376465h-1.8569336v2.6801767z" fill="#4269c4"/></g><g><path d="m24.7423744 20.6179676c-.0913086-.0913086-.137207-.2038574-.137207-.3376465v-6.4575205c0-.1335449.0458984-.2480469.137207-.3430176s.2041016-.142334.3378906-.142334h2.4057617c.6679688 0 1.2133789.1125488 1.6352539.3376465s.7246094.5136719.9072266.8652344c.1831055.3518066.2744141.7316895.2744141 1.1396484 0 .4079599-.0913086.7878428-.2744141 1.1394053-.1826172.3518066-.4853516.6403809-.9072266.8652344-.421875.2253418-.9672852.3376465-1.6352539.3376465h-1.9204102v2.2580566c0 .1337891-.0478516.2463379-.1425781.3376465-.0952148.0913086-.2094727.137207-.3427734.137207-.133789 0-.246582-.0458984-.3378906-.137207zm2.6484375-3.5031738c.7177734 0 1.222168-.1369629 1.5141602-.411377s.4379883-.6154785.4379883-1.0234385c0-.407959-.1459961-.7492676-.4379883-1.0236816-.2919922-.2741699-.7963867-.411377-1.5141602-.411377h-1.8251953v2.869874h1.8251953z" fill="#4269c4"/></g></g><g><g><path d="m49.9362679 48.7023163c-.196125-.6235924-.3135376-1.2471848-.434864-1.871212-.0654449-.2530899-.0954514-.7888412.0834961-1.1823883.1663322-.4161644.5016136-.765358.9177742-.9840927.2096024-.1074104.4409523-.1791649.6786041-.2113419.2474365-.0273972.3372345-.0256577.5135689-.0400085l.9356079-.0621872c.6235886-.0360909 1.2473984-.0452232 1.8709908-.049572.6235924.0030441 1.2474022.0130463 1.8709946.0469627l.9356041.0630569.5137901.0387039c.2380867.032177.4696503.1043663.6794701.2117767.4170341.2191696.751442.5696678.9190826.9853973.1793785.3939819.1480713.930603.0834923 1.1836929-.1224136.6240273-.2393913 1.2476196-.437252 1.871212-.1978645-.6235924-.3148422-1.2471848-.4372559-1.871212-.0439186-.3657188-.1063232-.4757385-.2393913-.6344643-.1278496-.133503-.2763519-.228302-.4333382-.2556992-.0780602-.0130463-.1541595-.0117416-.2269974.0008698l-.4216003.0304413-.9356041.0626221c-.6235924.0343513-1.2474022.0439186-1.8709946.0473976-.6235924-.0047836-1.2474022-.013916-1.8709908-.049572l-.9356079-.0626221c-.1354599-.010437-.3576736-.020874-.421814-.031311-.0730591-.0126114-.1495934-.013916-.2278671-.0004349-.1576385.027832-.3054924.1235008-.434864.2570038-.1332855.1591606-.1945992.27005-.2391739.6357689-.1213266.6240274-.2385217 1.2476198-.4348603 1.8712122z" fill="#2d2d2d"/></g><g><g><path d="m65.8622284 49.7862968v11.7070732c0 1.3564949-1.0996552 2.4561501-2.4561539 2.4561501h-17.8070793c-1.3564949 0-2.4561501-1.0996552-2.4561501-2.4561501v-11.7070732c0-1.3564949 1.0996552-2.4561501 2.4561501-2.4561501h17.8070793c1.3564987.0000001 2.4561539 1.0996552 2.4561539 2.4561501z" fill="#4269c4"/></g><g><g><path d="m65.8622284 51.7320595v-1.9457817c0-1.3564911-1.0996552-2.4561462-2.4561501-2.4561462h-17.8070869c-1.3564911 0-2.4561462 1.0996552-2.4561462 2.4561462v1.9457817c0 .6311493.3977509 1.1937904.9927597 1.4043083l6.3392639 2.2428665c.1595688.0564575.3275909.0853043.4968529.0853043h7.0616264c.1692619 0 .3372841-.0288467.4968529-.0853043l6.3392677-2.2428665c.5950012-.2105179.9927597-.773159.9927597-1.4043083z" fill="#255299"/></g><g><path d="m56.0715523 56.6743965v.8677139c0 .9004021-.7299232 1.6303253-1.6303253 1.6303253h-.0000038c-.9004059 0-1.6303291-.7299232-1.6303291-1.6303253v-.8677139z" fill="#8a9bea"/></g><g><path d="m57.9803314 56.2523842c-.0356598.249176-.2493935.4539986-.5077019.4896545-2.066246.2939682-4.0879173.2852707-6.0648003 0-.2672234-.035656-.4722595-.249176-.5077019-.5074806-.0624008-.5431442-.0713158-1.0510635-.0089149-1.5320206.0267448-.2670059.2670059-.4718246.5344467-.4896545 2.0303688-.1956863 4.0431252-.1956863 6.0291405-.0086975.2672234.0265274.489872.2313461.5255318.4896545.0713158.498787.0713158 1.0241013 0 1.5585442z" fill="#d1dafe"/></g></g></g></g><g><g><g><g><g><path d="m18.9373055 47.7951355v14.5973091c0 .9437256-.7650394 1.7087669-1.708765 1.7087669h-13.382c-.9437253 0-1.7087657-.7650414-1.7087657-1.7087669v-17.1881409c0-.9437256.7650404-1.7087669 1.7087657-1.7087669h10.7962933z" fill="#d1dafe"/></g><g><path d="m18.9373055 47.7951355h-3.3757477c-.5092201 0-.9187241-.4093742-.9187241-.9187241v-3.3808746z" fill="#8a9bea"/></g></g></g></g><g><path d="m5.4947243 55.3532333c.3100586.8896484.3798828 1.7700195.3901367 2.6601563-.0102539.8798828-.0800781 1.7597656-.3901367 2.6499023-.3198242-.8901367-.3898926-1.7700195-.3999023-2.6499023.0100097-.8901367.0800781-1.7705078.3999023-2.6601563z" fill="#8a9bea"/></g><g><path d="m15.4847145 57.8532333c-.0100098.8398438-.079834 1.6699219-.3999023 2.5-.3100586-.8300781-.380127-1.6601563-.3901367-2.5.0100098-.8300781.0800781-1.6601563.3901367-2.5.3200683.8398438.3898925 1.6699219.3999023 2.5z" fill="#8a9bea"/></g><g><path d="m10.4249001 52.2829208c.199707.6000977.25 1.2099609.2597656 1.8100586-.0097656.7299805-.079834 1.4501953-.3999023 2.1801758-.3100586-.7299805-.3798828-1.4501953-.3901367-2.1801758.0102539-.6000977.0600586-1.2099609.25-1.8100586-1.4399414.050293-2.8999023.050293-4.3498535-.0297852-.0300293.4199219-.0600586.8398438-.1000977 1.2602539-.0700684.5297852-.1098633 1.0595703-.1999512 1.5898438-.1000977-.5302734-.1398926-1.0600586-.2099609-1.5898438-.0500488-.5302734-.0900879-1.0600586-.1201172-1.590332 0-.1699219.1201172-.3100586.2900391-.3198242h.0400391c1.4799805-.0800781 2.9699707-.1000977 4.4499512-.0600586.0500488-1.2700195.1501465-2.5400391.3500977-3.800293.1899414 1.2602539.2900391 2.5302734.3400879 3.800293 1.4897461-.0400391 2.9699707-.0200195 4.4499512.0600586h.0397949c.170166.0097656.300293.1499023.2900391.3198242-.0297852.5302734-.0698242 1.0600586-.119873 1.590332-.0700684.5297852-.1101074 1.0595703-.2099609 1.5898438-.0900879-.5302734-.130127-1.0600586-.1999512-1.5898438-.0400391-.4204102-.0700684-.840332-.1000977-1.2602539-1.4499514.0800782-2.8999026.0800782-4.3598635.0297852z" fill="#8a9bea"/></g><g><path d="m16.8548317 53.9915009v2.2299805c0 .3598633-.3000488.6499023-.6601563.6499023h-2.2199707c-.3598633 0-.6499023-.2900391-.6499023-.6499023v-2.2299805c0-.3598633.2900391-.6499023.6499023-.6499023h2.2199707c.3601075-.0000001.6601563.290039.6601563.6499023z" fill="#4269c4"/></g><g><path d="m13.5748024 46.6248817v2.2299805c0 .3598633-.2900391.6499023-.6499023.6499023h-5.260254c-.3598633 0-.6599121-.2900391-.6599121-.6499023v-2.2299805c0-.3598633.3000488-.6499023.6599121-.6499023h5.2602539c.3598633 0 .6499024.2900391.6499024.6499023z" fill="#4269c4"/></g><g><path d="m12.0547829 53.9915009v2.2299805c0 .3598633-.3000488.6499023-.6601563.6499023h-2.2197265c-.3601074 0-.6501465-.2900391-.6501465-.6499023v-2.2299805c0-.3598633.2900391-.6499023.6501465-.6499023h2.2197266c.3601073-.0000001.6601562.290039.6601562.6499023z" fill="#4269c4"/></g><g><path d="m7.254734 53.9915009v2.2299805c0 .3598633-.2900391.6499023-.6499023.6499023h-2.2302246c-.3598633 0-.6499026-.2900391-.6499026-.6499023v-2.2299805c0-.3598633.2900393-.6499023.6499026-.6499023h2.2302246c.3598633-.0000001.6499023.290039.6499023.6499023z" fill="#4269c4"/></g><g><path d="m7.254734 59.5462151v2.2299805c0 .3598633-.2900391.6499023-.6499023.6499023h-2.2302246c-.3598633 0-.6499026-.2900391-.6499026-.6499023v-2.2299805c0-.3598633.2900393-.6499023.6499026-.6499023h2.2302246c.3598633-.0000001.6499023.290039.6499023.6499023z" fill="#4269c4"/></g><g><path d="m16.8548317 59.5462151v2.2299805c0 .3598633-.2900391.6499023-.6499023.6499023h-2.2302246c-.3598633 0-.6499023-.2900391-.6499023-.6499023v-2.2299805c0-.3598633.2900391-.6499023.6499023-.6499023h2.2302246c.3598632-.0000001.6499023.290039.6499023.6499023z" fill="#4269c4"/></g></g><g><g><g><g><g><g><g><g><g><g><circle cx="58.513" cy="11.061" fill="#fa990e" r="7.162"/></g><g><circle cx="57.687" cy="11.061" fill="#fbad3e" r="7.162"/></g><g><circle cx="57.687" cy="11.061" fill="#fa990e" r="5.873"/></g><g><path d="m63.5618858 11.0621395c0 3.2412615-2.6304855 5.8715172-5.8762207 5.8715172-2.0668449 0-3.8846054-1.0662766-4.927372-2.6820908 1.0897827.7188025 2.4096146 1.1415062 3.8281822 1.1415062 3.5182076 0 6.4117661-2.5788813 6.7686462-5.8855095.1362382.4931164.2067643 1.0144425.2067643 1.5545769z" fill="#e0860e"/></g></g></g></g><g><circle cx="54.03" cy="10.918" fill="#e0860e" r=".763"/></g><g><circle cx="61.84" cy="10.918" fill="#e0860e" r=".763"/></g><g><circle cx="53.768" cy="11.061" fill="#fff" r=".763"/></g><g><g><circle cx="61.606" cy="11.061" fill="#fff" r=".763"/></g></g></g></g><g><path d="m59.5922432 11.9754343c-.2911644-.7652159-1.0881577-1.2899666-1.9046211-1.2854404-.5319023.0123138-1.0488663-.320137-1.256649-.812295-.227787-.4858198-.1224937-1.1078072.2549515-1.5204735.3721085-.4161062 1.0150986-.6011634 1.5881042-.4039745.5783501.1781759 1.046154.7364254 1.1233826 1.4107428.0937042-.6761284-.3080978-1.4223313-.9835014-1.7468152-.1646881-.0796719-.3418655-.1336322-.5243874-.1626039.0348549-.0472598.0641899-.0943389.088726-.141418.0543213-.113533.07967-.2272472.0801239-.3409615.0005417-.113533-.024807-.2272472-.0791283-.340961-.0587616-.113533-.136261-.2272472-.2916222-.3409615-.1553574.1137142-.2328568.2274284-.2916183.3409615-.0543213.1137137-.07967.227428-.0791283.340961.0004539.1137142.0258026.2274284.0801239.3409615.0215492.0414658.0474434.0829315.0766869.1243973-.0544128.003078-.1088257.0032592-.163147.0106831-.3810692.0543222-.7433968.2346711-1.032753.4986763-.5936508.5265613-.7974472 1.4431548-.4957771 2.1993175.2925224.764492 1.0887032 1.2905102 1.9056129 1.285078.5322685-.0133991 1.0485077.320138 1.2576485.8119335.2273369.4858198.1228561 1.1087122-.2552261 1.5215597-.3725586.4162874-1.0158195.6015253-1.5891876.4039745-.5784416-.1785383-1.0464249-.7371502-1.1230202-1.4114676-.093071.6759472.3086395 1.4217892.9838638 1.7459097.1630554.0822077.3398743.1363487.5221252.1647768-.034584.0465364-.0636482.0932531-.087822.1399698-.0543213.1137142-.07967.2272472-.0791283.3409615.0004539.1137142.0258026.2272472.0801239.3409615.0592117.1137142.1361694.2272472.2906227.3409615.1544571-.1137142.2314148-.2272472.2906265-.3409615.0543213-.1137142.07967-.2272472.0801239-.3409615.0005417-.1137142-.024807-.2272472-.0791283-.3409615-.0216408-.0420084-.0478058-.0838366-.0775909-.1258459.4351196-.0278854.867794-.1955595 1.1950836-.5086346.593014-.5261992.7976305-1.4422501.4955065-2.1980504z" fill="#fff"/></g></g></g></g></g></g></svg>