<svg id="Capa_1" enable-background="new 0 0 512 512" height="512" viewBox="0 0 512 512" width="512" xmlns="http://www.w3.org/2000/svg"><g><path d="m385.78 343.85h-44.311v-55.063c0-6.91-5.622-12.532-12.532-12.532h-13.727v-18.955c0-6.909-5.625-12.53-12.54-12.53h-37.43c-4.142 0-7.5 3.357-7.5 7.5s3.358 7.5 7.5 7.5h34.97v16.484h-88.42v-16.484h18.45c4.142 0 7.5-3.357 7.5-7.5s-3.358-7.5-7.5-7.5h-20.91c-6.915 0-12.54 5.621-12.54 12.53v18.954h-13.727c-6.91 0-12.532 5.622-12.532 12.532v55.063h-44.311c-6.893 0-12.5 5.607-12.5 12.5v139.96c0 6.893 5.607 12.5 12.5 12.5h259.56c6.893 0 12.5-5.607 12.5-12.5v-139.959c0-6.892-5.608-12.5-12.5-12.5zm-257.06 15h41.811v134.96h-41.811zm136.893 134.96h-19.227v-24.893h19.227zm117.667 0h-41.811v-27.871c0-4.143-3.358-7.5-7.5-7.5s-7.5 3.357-7.5 7.5v27.871h-45.855v-29.168c0-5.913-4.811-10.725-10.725-10.725h-27.777c-5.914 0-10.725 4.812-10.725 10.725v29.168h-45.855v-202.556h140.938v139.685c0 4.143 3.358 7.5 7.5 7.5s7.5-3.357 7.5-7.5v-72.089h41.811v134.96z"/><path d="m208.48 147.5h95.04c6.578 0 11.93-5.352 11.93-11.93v-15.64c0-11.773-7.891-22.311-19.187-25.626l-16.443-4.829v-6.8c10.235-7.406 16.912-19.439 16.912-33.01v-9.49c0-20.394-16.592-36.985-36.985-36.985h-7.492c-20.394 0-36.985 16.592-36.985 36.985v9.49c0 13.57 6.677 25.604 16.912 33.01v6.801l-16.442 4.828c-11.298 3.315-19.188 13.853-19.188 25.626v15.641c-.002 6.578 5.35 11.929 11.928 11.929zm21.789-107.325c0-12.123 9.863-21.985 21.985-21.985h7.492c12.123 0 21.985 9.862 21.985 21.985v9.49c0 14.188-11.543 25.731-25.731 25.731s-25.731-11.543-25.731-25.731zm25.731 50.222c3.029 0 5.978-.343 8.82-.973 0 .599 0 6.906 0 6.646 0 4.036-3.284 7.319-7.32 7.319h-3c-3.846 0-7.381-2.854-7.32-8.21v-5.755c2.842.63 5.791.973 8.82.973zm-44.45 29.533c0-5.16 3.459-9.779 8.414-11.233l13.918-4.087c3.36 8.082 11.335 13.78 20.618 13.78h3c9.284 0 17.259-5.699 20.618-13.78l13.92 4.087c4.953 1.454 8.412 6.073 8.412 11.233v12.57h-88.9z"/><path d="m118.89 226.621v-15.64c0-11.766-7.887-22.308-19.184-25.636l-16.446-4.836v-6.784c10.238-7.406 16.917-19.441 16.917-33.014v-9.49c0-20.394-16.592-36.985-36.985-36.985h-7.492c-20.394 0-36.985 16.592-36.985 36.985v9.49c0 13.572 6.679 25.606 16.916 33.012v6.792l-16.45 4.83c-11.294 3.328-19.181 13.87-19.181 25.636v15.64c0 6.572 5.352 11.92 11.93 11.92h95.04c6.573 0 11.92-5.348 11.92-11.92zm-85.176-95.4c0-12.123 9.863-21.985 21.985-21.985h7.492c12.123 0 21.985 9.862 21.985 21.985v9.49c0 14.188-11.543 25.731-25.731 25.731s-25.731-11.542-25.731-25.731zm34.546 49.25v6.64c0 4.042-3.284 7.33-7.32 7.33h-2.99c-3.853 0-7.381-2.869-7.32-8.221v-5.749c5.683 1.259 11.621 1.332 17.63 0zm35.63 43.07h-88.89v-12.56c0-5.161 3.462-9.785 8.413-11.244l13.917-4.086c3.359 8.087 11.335 13.791 20.62 13.791h2.99c9.287 0 17.265-5.706 20.622-13.796l13.908 4.09c4.958 1.461 8.42 6.085 8.42 11.246z"/><path d="m492.813 185.344-16.443-4.829v-6.792c10.237-7.406 16.916-19.44 16.916-33.012v-9.49c0-20.394-16.592-36.985-36.985-36.985h-7.492c-20.394 0-36.985 16.592-36.985 36.985v9.49c0 13.573 6.68 25.608 16.917 33.014v6.784l-16.45 4.837c-11.293 3.327-19.181 13.869-19.181 25.635v15.64c0 6.572 5.347 11.92 11.92 11.92h95.04c6.578 0 11.93-5.348 11.93-11.92v-15.64c0-11.766-7.887-22.308-19.187-25.637zm-65.99-54.123c0-12.123 9.863-21.985 21.985-21.985h7.492c12.123 0 21.985 9.862 21.985 21.985v9.49c0 14.188-11.543 25.731-25.731 25.731s-25.731-11.543-25.731-25.731zm34.547 49.25v6.64c0 4.042-3.284 7.33-7.32 7.33h-2.99c-3.845 0-7.387-2.86-7.32-8.23v-5.739c5.684 1.259 11.621 1.33 17.63-.001zm35.63 43.07h-88.89v-12.56c0-5.161 3.462-9.785 8.417-11.245l13.912-4.091c3.357 8.09 11.335 13.796 20.622 13.796h2.99c9.285 0 17.262-5.703 20.62-13.791l13.91 4.084c4.957 1.461 8.419 6.085 8.419 11.246z"/><path d="m298.048 382.657h-84.096c-5.8 0-10.519 4.719-10.519 10.519v25.856c0 5.801 4.719 10.52 10.519 10.52h84.096c5.8 0 10.519-4.719 10.519-10.52v-25.856c0-5.801-4.719-10.519-10.519-10.519zm-79.615 15h30.067v16.895h-30.067zm75.134 16.894h-30.067v-16.895h30.067z"/><path d="m298.048 311.958h-84.096c-5.8 0-10.519 4.719-10.519 10.52v25.856c0 5.8 4.719 10.519 10.519 10.519h84.096c5.8 0 10.519-4.719 10.519-10.519v-25.856c0-5.801-4.719-10.52-10.519-10.52zm-79.615 15h30.067v16.895h-30.067zm75.134 16.895h-30.067v-16.895h30.067z"/><path d="m249.419 175.046v31.732c0 4.143 3.358 7.5 7.5 7.5s7.5-3.357 7.5-7.5v-31.732c0-4.143-3.358-7.5-7.5-7.5s-7.5 3.358-7.5 7.5z"/><path d="m324.638 229.687 37.545-8.001c4.051-.863 6.636-4.847 5.772-8.898s-4.849-6.636-8.898-5.771l-37.545 8.001c-4.051.863-6.636 4.847-5.772 8.898.863 4.047 4.843 6.636 8.898 5.771z"/><path d="m149.816 221.686c39.214 8.327 37.648 8.168 39.116 8.168 3.464 0 6.577-2.414 7.328-5.938.863-4.052-1.721-8.035-5.772-8.898l-37.545-8.001c-4.055-.863-8.036 1.721-8.898 5.771-.864 4.051 1.72 8.038 5.771 8.898z"/></g></svg>