<?xml version="1.0" encoding="UTF-8"?>
<svg version="1.1" xmlns="http://www.w3.org/2000/svg" width="512" height="512">
<path d="M0 0 C0.68368652 0.20898926 1.36737305 0.41797852 2.07177734 0.63330078 C31.23390894 9.83912856 57.14026341 30.9384647 71.35766602 58.09204102 C72.99160195 61.35716809 74.51420943 64.66530358 76 68 C76.72316406 69.58167969 76.72316406 69.58167969 77.4609375 71.1953125 C89.35440466 99.3792256 88.23471121 133.04957934 77.3125 161.25 C71.39718292 175.63494417 63.46681377 187.55383523 53 199 C52.28328125 199.79921875 51.5665625 200.5984375 50.828125 201.421875 C34.49784631 218.73442609 12.18712913 229.78415834 -11 234 C-11 245.22 -11 256.44 -11 268 C-5.72 268 -0.44 268 5 268 C5 341.92 5 415.84 5 492 C31.4 492 57.8 492 85 492 C85 497.28 85 502.56 85 508 C-83.96 508 -252.92 508 -427 508 C-427 502.72 -427 497.44 -427 492 C-421.72 492 -416.44 492 -411 492 C-411 455.04 -411 418.08 -411 380 C-384.6 380 -358.2 380 -331 380 C-331 416.96 -331 453.92 -331 492 C-320.44 492 -309.88 492 -299 492 C-299 428.64 -299 365.28 -299 300 C-272.6 300 -246.2 300 -219 300 C-219 363.36 -219 426.72 -219 492 C-208.44 492 -197.88 492 -187 492 C-187 407.52 -187 323.04 -187 236 C-160.6 236 -134.2 236 -107 236 C-107 320.48 -107 404.96 -107 492 C-96.44 492 -85.88 492 -75 492 C-75 418.08 -75 344.16 -75 268 C-69.72 268 -64.44 268 -59 268 C-59 256.78 -59 245.56 -59 234 C-62.3 233.34 -65.6 232.68 -69 232 C-98.12132972 223.60490968 -123.84385116 204.32555978 -139.17724609 177.97705078 C-141.67574837 173.41851425 -143.8892404 168.74858609 -146 164 C-146.48210937 162.93394531 -146.96421875 161.86789063 -147.4609375 160.76953125 C-159.65509578 131.61440735 -158.30860011 97.74647283 -146.60668945 68.69726562 C-134.31676801 39.86550919 -111.42426758 17.63466525 -83 5 C-81.40091797 4.27683594 -81.40091797 4.27683594 -79.76953125 3.5390625 C-55.54947712 -6.59099816 -25.06899036 -7.84345059 0 0 Z M-111 45 C-132.29890996 68.36633209 -139.20492638 95.60645394 -138.1953125 126.68994141 C-137.77583657 133.79900971 -136.25772051 140.26903884 -134 147 C-133.79101074 147.63115723 -133.58202148 148.26231445 -133.36669922 148.91259766 C-128.04830033 164.57299169 -119.56100883 177.3003284 -108 189 C-107.03513672 190.07314453 -107.03513672 190.07314453 -106.05078125 191.16796875 C-90.04330671 208.56437817 -65.90752122 217.0910399 -43 219 C-43 235.17 -43 251.34 -43 268 C-37.72 268 -32.44 268 -27 268 C-27 251.83 -27 235.66 -27 219 C-23.04 218.67 -19.08 218.34 -15 218 C-11.67530391 217.26526053 -8.54672284 216.499705 -5.3125 215.5 C-4.46308838 215.23936768 -3.61367676 214.97873535 -2.73852539 214.71020508 C10.88164719 210.3096855 22.36354282 203.52545737 33 194 C33.94359375 193.25169922 33.94359375 193.25169922 34.90625 192.48828125 C53.33457302 177.87127049 64.69425714 152.97392953 68 130 C68.91066466 114.6593827 68.83581903 99.66653008 64 85 C63.649375 83.89398438 63.29875 82.78796875 62.9375 81.6484375 C52.92205109 53.06267706 32.5429114 33.80156173 5.9453125 20.46875 C-33.83345574 2.39750903 -81.20226235 14.24942771 -111 45 Z M-171 252 C-171 331.2 -171 410.4 -171 492 C-155.16 492 -139.32 492 -123 492 C-123 412.8 -123 333.6 -123 252 C-138.84 252 -154.68 252 -171 252 Z M-59 284 C-59 352.64 -59 421.28 -59 492 C-43.16 492 -27.32 492 -11 492 C-11 423.36 -11 354.72 -11 284 C-26.84 284 -42.68 284 -59 284 Z M-283 316 C-283 374.08 -283 432.16 -283 492 C-267.16 492 -251.32 492 -235 492 C-235 433.92 -235 375.84 -235 316 C-250.84 316 -266.68 316 -283 316 Z M-395 396 C-395 427.68 -395 459.36 -395 492 C-379.16 492 -363.32 492 -347 492 C-347 460.32 -347 428.64 -347 396 C-362.84 396 -378.68 396 -395 396 Z " fill="#000000" transform="translate(427,4)"/>
<path d="M0 0 C0.85207031 0.48339844 1.70414063 0.96679688 2.58203125 1.46484375 C22.60759293 13.91316588 35.36357223 34.4224447 41 57 C46.46359811 80.89692979 40.72851048 104.47676621 28.2421875 124.87109375 C15.06725146 144.51094026 -4.07363338 157.47143475 -27 163 C-50.37364074 167.37548084 -74.33906642 163.38395186 -94.5 150.71875 C-114.60442839 136.89695548 -128.11749843 117.38441067 -133.39575195 93.51025391 C-134.39071409 87.73022741 -134.48937297 82.04104053 -134.4375 76.1875 C-134.42847656 74.96063477 -134.41945313 73.73376953 -134.41015625 72.46972656 C-134.10590149 56.49212614 -129.84545127 43.82865913 -122 30 C-121.51660156 29.14792969 -121.03320312 28.29585937 -120.53515625 27.41796875 C-108.62536117 8.25873319 -88.68644539 -5.46268759 -66.89501953 -10.91748047 C-43.20150451 -15.76834212 -20.72830794 -11.75984803 0 0 Z M-97.25 25.6875 C-111.67716707 40.3538427 -117.28846582 57.84144198 -117.31689453 77.98950195 C-117.0915385 95.74394011 -110.8057441 110.76054124 -99 124 C-98.37222656 124.71027344 -97.74445313 125.42054688 -97.09765625 126.15234375 C-85.56620793 138.43840628 -68.6869473 146.47116255 -51.875 147.3203125 C-31.12125409 147.94373804 -13.76667448 143.02671889 2 129 C3.03060547 128.11054688 3.03060547 128.11054688 4.08203125 127.203125 C14.59059573 117.50291164 20.268222 105.56101468 24 92 C24.17740723 91.37915527 24.35481445 90.75831055 24.53759766 90.11865234 C27.56846705 76.23170165 25.47699021 60.93052508 20 48 C19.60425781 47.04996094 19.20851563 46.09992188 18.80078125 45.12109375 C10.86963722 27.86229196 -4.36609187 14.90327933 -21.875 8.125 C-48.99256761 -0.90405558 -76.89436905 5.949094 -97.25 25.6875 Z " fill="#000000" transform="translate(438,44)"/>
<path d="M0 0 C15.84 0 31.68 0 48 0 C48 15.84 48 31.68 48 48 C42.72 48 37.44 48 32 48 C31.67 42.06 31.34 36.12 31 30 C28.4487439 32.99114868 28.4487439 32.99114868 25.84594727 36.04272461 C17.96146899 45.20088559 9.83577294 54.12972346 1.5625 62.9375 C0.8262162 63.72157352 0.0899324 64.50564705 -0.66866302 65.31348038 C-32.65273086 99.12468958 -32.65273086 99.12468958 -55.75956726 100.61524963 C-65.20339427 100.7157052 -74.8651623 99.81308378 -84.08879089 97.73931885 C-89.3838107 96.58543596 -89.3838107 96.58543596 -94.31689453 98.34555054 C-96.37229492 100.12740722 -98.17857014 101.98219459 -100 104 C-101.27692661 105.20290758 -102.56224896 106.39702711 -103.859375 107.578125 C-105.15733786 108.80092963 -106.45418699 110.02491739 -107.75 111.25 C-113.48814337 116.65236904 -119.25935409 122.01259914 -125.078125 127.328125 C-128.20643985 130.18877655 -131.3236772 133.0610975 -134.4375 135.9375 C-135.24803833 136.68616333 -135.24803833 136.68616333 -136.07495117 137.44995117 C-137.16964892 138.46120612 -138.26429396 139.47251812 -139.35888672 140.48388672 C-142.07177586 142.99014104 -144.78594859 145.49500446 -147.5 148 C-148.58333957 148.99999324 -149.66667291 149.99999324 -150.75 151 C-157.25 157 -163.75 163 -170.25 169 C-170.7869751 169.49604736 -171.3239502 169.99209473 -171.87719727 170.50317383 C-172.95168312 171.49424841 -174.02767376 172.48369426 -175.10522461 173.47143555 C-177.96393803 176.0960059 -180.78463603 178.75087316 -183.56640625 181.45703125 C-184.15164062 182.01841797 -184.736875 182.57980469 -185.33984375 183.15820312 C-186.46553786 184.23922683 -187.58192362 185.3300507 -188.6875 186.43164062 C-192.38863766 189.95855171 -192.38863766 189.95855171 -195.07421875 190.140625 C-197.84992135 188.49659831 -199.65037602 186.37676904 -201.75 183.9375 C-202.94882813 182.55884766 -202.94882813 182.55884766 -204.171875 181.15234375 C-205.07679688 180.08693359 -205.07679688 180.08693359 -206 179 C-204.53383493 175.50913078 -202.66719588 173.58281186 -199.8125 171.125 C-195.34036574 167.20139591 -190.96348299 163.1959478 -186.625 159.125 C-181.10075832 153.95289846 -175.54618835 148.81702474 -169.9609375 143.7109375 C-166.79744272 140.81793526 -163.64824074 137.90958228 -160.5 135 C-156.3415979 131.15758215 -152.17590926 127.32338403 -148 123.5 C-142.19892738 118.18800184 -136.41830859 112.85405644 -130.64111328 107.51611328 C-128.46803804 105.50855641 -126.29412322 103.50191014 -124.12011719 101.49536133 C-123.04647486 100.50439399 -121.97290625 99.51334678 -120.89941406 98.5222168 C-118.05523435 95.8963214 -115.20997443 93.27160806 -112.36328125 90.6484375 C-111.76902344 90.10058594 -111.17476563 89.55273438 -110.5625 88.98828125 C-109.42088717 87.93585693 -108.27897408 86.88375819 -107.13671875 85.83203125 C-105.05942206 83.91653406 -102.9982768 81.9982768 -101 80 C-99.01275635 80.13873291 -99.01275635 80.13873291 -96.52441406 80.66503906 C-78.34841622 84.09074288 -55.90668306 87.22186482 -39.63128662 76.23431396 C-28.49440446 68.04274019 -18.85137902 58.00740327 -9.4375 47.9375 C-8.3984124 46.82650688 -8.3984124 46.82650688 -7.33833313 45.69306946 C1.3642109 36.34263878 9.76516498 26.76361553 18 17 C12.06 16.67 6.12 16.34 0 16 C0 10.72 0 5.44 0 0 Z " fill="#000000" transform="translate(208,176)"/>
<path d="M0 0 C3.04581486 1.36113013 5.13839026 2.89330096 7.48339844 5.25634766 C8.14378113 5.91688141 8.80416382 6.57741516 9.48455811 7.25796509 C10.18574768 7.96947723 10.88693726 8.68098938 11.609375 9.4140625 C12.33618469 10.14370209 13.06299438 10.87334167 13.81182861 11.62509155 C16.12929198 13.9537388 18.4396995 16.28924826 20.75 18.625 C22.32115444 20.20618653 23.89276371 21.78692125 25.46484375 23.3671875 C29.31518653 27.2395669 33.15976117 31.11760171 37 35 C35.30413874 38.63303084 33.26199512 40.94549046 30.375 43.75 C29.55773437 44.54921875 28.74046875 45.3484375 27.8984375 46.171875 C27.27195312 46.77515625 26.64546875 47.3784375 26 48 C22 46 22 46 10 34 C9.67 57.1 9.34 80.2 9 104 C3.72 104 -1.56 104 -7 104 C-7.33 80.9 -7.66 57.8 -8 34 C-12.62 38.62 -17.24 43.24 -22 48 C-25.84281736 46.07859132 -27.80431927 44.4073184 -30.75 41.375 C-31.54921875 40.55773437 -32.3484375 39.74046875 -33.171875 38.8984375 C-33.77515625 38.27195313 -34.3784375 37.64546875 -35 37 C-33.63886987 33.95418514 -32.10669904 31.86160974 -29.74365234 29.51660156 C-29.08311859 28.85621887 -28.42258484 28.19583618 -27.74203491 27.51544189 C-27.03052277 26.81425232 -26.31901062 26.11306274 -25.5859375 25.390625 C-24.49147812 24.30041046 -24.49147812 24.30041046 -23.37490845 23.18817139 C-21.0462612 20.87070802 -18.71075174 18.5603005 -16.375 16.25 C-14.79381347 14.67884556 -13.21307875 13.10723629 -11.6328125 11.53515625 C-7.7604331 7.68481347 -3.88239829 3.84023883 0 0 Z " fill="#000000" transform="translate(391,64)"/>
<path d="M0 0 C15.84 0 31.68 0 48 0 C48 5.61 48 11.22 48 17 C32.16 17 16.32 17 0 17 C0 11.39 0 5.78 0 0 Z " fill="#000000" transform="translate(464,463)"/>
<path d="M0 0 C15.84 0 31.68 0 48 0 C48 5.61 48 11.22 48 17 C32.16 17 16.32 17 0 17 C0 11.39 0 5.78 0 0 Z " fill="#000000" transform="translate(464,431)"/>
<path d="M0 0 C15.84 0 31.68 0 48 0 C48 5.61 48 11.22 48 17 C32.16 17 16.32 17 0 17 C0 11.39 0 5.78 0 0 Z " fill="#000000" transform="translate(464,399)"/>
<path d="M0 0 C15.84 0 31.68 0 48 0 C48 5.61 48 11.22 48 17 C32.16 17 16.32 17 0 17 C0 11.39 0 5.78 0 0 Z " fill="#000000" transform="translate(464,367)"/>
<path d="M0 0 C15.84 0 31.68 0 48 0 C48 5.61 48 11.22 48 17 C32.16 17 16.32 17 0 17 C0 11.39 0 5.78 0 0 Z " fill="#000000" transform="translate(464,335)"/>
<path d="M0 0 C15.84 0 31.68 0 48 0 C48 5.61 48 11.22 48 17 C32.16 17 16.32 17 0 17 C0 11.39 0 5.78 0 0 Z " fill="#000000" transform="translate(464,303)"/>
<path d="M0 0 C15.84 0 31.68 0 48 0 C48 5.61 48 11.22 48 17 C32.16 17 16.32 17 0 17 C0 11.39 0 5.78 0 0 Z " fill="#000000" transform="translate(464,271)"/>
</svg>
