<svg id="&#x421;&#x43B;&#x43E;&#x439;_1" viewBox="0 0 128 128" xmlns="http://www.w3.org/2000/svg"><path d="m67.64 4-66 12a2 2 0 0 0 -1.64 2v92a2 2 0 0 0 1.64 2l66 12a2.19 2.19 0 0 0 .36 0 2 2 0 0 0 2-2v-116a2 2 0 0 0 -.72-1.54 2 2 0 0 0 -1.64-.46zm-1.64 115.6-62-11.27v-88.66l62-11.27z"/><path d="m115 51a13 13 0 0 0 -4.88 1 31.34 31.34 0 0 0 -13.92-14.56 12.85 12.85 0 0 0 .8-4.44 13 13 0 0 0 -22.46-8.91 2 2 0 0 0 2.92 2.75 8.89 8.89 0 0 1 6.54-2.84 9 9 0 0 1 0 18 8.89 8.89 0 0 1 -6.54-2.84 2 2 0 0 0 -2.92 2.75 13 13 0 0 0 19.73-1 27.31 27.31 0 0 1 12.4 13.09 13 13 0 0 0 .63 20.42 27.25 27.25 0 0 1 -12 14.08 13 13 0 0 0 -20.72-2.44 2 2 0 0 0 2.92 2.75 8.89 8.89 0 0 1 6.5-2.81 9 9 0 0 1 0 18 8.89 8.89 0 0 1 -6.54-2.84 2 2 0 0 0 -2.92 2.75 13 13 0 0 0 22.17-11.63 31.23 31.23 0 0 0 14.15-16 13 13 0 1 0 4.14-25.28zm0 22a9 9 0 1 1 9-9 9 9 0 0 1 -9 9z"/><path d="m31 83a9.28 9.28 0 0 1 -4.59-1.41 2 2 0 0 0 -2.82 2.82c1.52 1.53 5.13 2.59 7.41 2.59 7.41 0 13-5.16 13-12 0-6.59-5-9.82-9.41-12.68-4.07-2.63-7.59-4.91-7.59-9.32a6.92 6.92 0 0 1 7-7 7.27 7.27 0 0 1 5.59 2.41 2 2 0 0 0 2.82-2.82 11.26 11.26 0 0 0 -8.41-3.59 11 11 0 0 0 -11 11c0 6.59 5 9.82 9.41 12.68 4.07 2.63 7.59 4.91 7.59 9.32 0 5.25-4.53 8-9 8z"/></svg>